<?xml version="1.0" encoding="UTF-8" standalone="no"?>
<!-- Created with Inkscape (http://www.inkscape.org/) -->

<svg
   sodipodi:docname="boundary.svg"
   id="svg5016"
   version="1.1"
   viewBox="0 0 295.8755 189.75242"
   height="189.75241mm"
   width="295.87552mm"
   inkscape:version="1.2.1 (1:1.2.1+202210291243+9c6d41e410)"
   xmlns:inkscape="http://www.inkscape.org/namespaces/inkscape"
   xmlns:sodipodi="http://sodipodi.sourceforge.net/DTD/sodipodi-0.dtd"
   xmlns:xlink="http://www.w3.org/1999/xlink"
   xmlns="http://www.w3.org/2000/svg"
   xmlns:svg="http://www.w3.org/2000/svg"
   xmlns:ns1="http://www.iki.fi/pav/software/textext/">
  <sodipodi:namedview
     id="namedview5018"
     pagecolor="#ffffff"
     bordercolor="#000000"
     borderopacity="0.25"
     inkscape:showpageshadow="2"
     inkscape:pageopacity="0.0"
     inkscape:pagecheckerboard="0"
     inkscape:deskcolor="#d1d1d1"
     inkscape:document-units="mm"
     showgrid="false"
     inkscape:zoom="0.5"
     inkscape:cx="513"
     inkscape:cy="328"
     inkscape:window-width="1920"
     inkscape:window-height="939"
     inkscape:window-x="0"
     inkscape:window-y="32"
     inkscape:window-maximized="1"
     inkscape:current-layer="layer1" />
  <defs
     id="defs5013">
    <marker
       style="overflow:visible"
       id="Arrow2"
       refX="0"
       refY="0"
       orient="auto-start-reverse"
       inkscape:stockid="Arrow2"
       markerWidth="7.6999998"
       markerHeight="5.5999999"
       viewBox="0 0 7.7 5.6"
       inkscape:isstock="true"
       inkscape:collect="always"
       preserveAspectRatio="xMidYMid">
      <path
         transform="scale(0.7)"
         d="M -2,-4 9,0 -2,4 c 2,-2.33 2,-5.66 0,-8 z"
         style="fill:context-stroke;fill-rule:evenodd;stroke:none"
         id="arrow2L" />
    </marker>
    <linearGradient
       inkscape:collect="always"
       id="linearGradient18970">
      <stop
         style="stop-color:#ffffff;stop-opacity:1;"
         offset="0"
         id="stop18966" />
      <stop
         style="stop-color:#ffffff;stop-opacity:0;"
         offset="1"
         id="stop18968" />
    </linearGradient>
    <linearGradient
       inkscape:collect="always"
       xlink:href="#linearGradient18970"
       id="linearGradient18972"
       x1="-522.19025"
       y1="152.14919"
       x2="-497.18204"
       y2="152.14919"
       gradientUnits="userSpaceOnUse"
       gradientTransform="matrix(0.60408071,0,0,1,-206.74519,0)" />
    <linearGradient
       inkscape:collect="always"
       xlink:href="#linearGradient18970"
       id="linearGradient18976"
       gradientUnits="userSpaceOnUse"
       x1="-522.19025"
       y1="152.14919"
       x2="-497.18204"
       y2="152.14919"
       gradientTransform="matrix(0.46711058,0,0,1,470.23532,2.5226563e-6)" />
  </defs>
  <g
     inkscape:label="Layer 1"
     inkscape:groupmode="layer"
     id="layer1"
     transform="translate(522.19019,-56.858147)">
    <rect
       style="opacity:1;fill:#ffffff;fill-opacity:1;stroke:none;stroke-width:3.23794;stroke-linecap:round;stroke-linejoin:round;stroke-dasharray:none"
       id="rect19938"
       width="295.87552"
       height="189.75241"
       x="-522.19019"
       y="56.858147" />
    <path
       id="path18872"
       style="fill:#4d4d4d;stroke:#000000;stroke-width:0.264583px;stroke-linecap:butt;stroke-linejoin:miter;stroke-opacity:1"
       d="m -256.08636,92.960924 v 29.327926 h 17.88676 v 58.36284 h -17.88676 v 29.32741 l -33.78037,-58.50909 z" />
    <path
       style="fill:none;fill-opacity:1;stroke:#d40000;stroke-width:2.64583;stroke-linecap:round;stroke-linejoin:round;stroke-dasharray:none"
       d="m -318.77819,106.74683 c 0.625,-0.126 1.249,-0.252 1.874,-0.377 0.624,-0.126 1.249,-0.251 1.873,-0.375 0.625,-0.125 1.249,-0.249 1.874,-0.373 0.624,-0.123 1.249,-0.246 1.873,-0.367 0.625,-0.122 1.249,-0.242 1.874,-0.362 0.624,-0.119 1.249,-0.237 1.873,-0.354 0.625,-0.116 1.249,-0.231 1.874,-0.344 0.624,-0.114 1.249,-0.225 1.873,-0.335 0.625,-0.109 1.249,-0.217 1.874,-0.322 0.624,-0.105 1.249,-0.209 1.873,-0.309 0.625,-0.101 1.249,-0.199 1.874,-0.295 0.624,-0.096 1.249,-0.189 1.873,-0.279 0.625,-0.09 1.249,-0.178 1.874,-0.262 0.624,-0.085 1.249,-0.166 1.873,-0.245 0.625,-0.078 1.249,-0.153 1.874,-0.225 0.624,-0.072 1.249,-0.141 1.873,-0.206 0.625,-0.065 1.249,-0.127 1.874,-0.185 0.624,-0.058 1.249,-0.113 1.873,-0.164 0.625,-0.051 1.249,-0.098 1.874,-0.141 0.624,-0.044 1.249,-0.083 1.873,-0.119 0.625,-0.036 1.249,-0.068 1.874,-0.096 0.624,-0.028 1.249,-0.052 1.873,-0.072 0.625,-0.02 1.249,-0.036 1.874,-0.048 0.624,-0.012 1.249,-0.02 1.873,-0.024 0.625,-0.004 1.249,-0.004 1.874,0 0.624,0.004 1.249,0.012 1.873,0.024 0.625,0.012 1.249,0.028 1.874,0.048 0.624,0.02 1.249,0.044 1.873,0.072 0.625,0.028 1.249,0.06 1.874,0.096 0.624,0.036 1.249,0.075 1.873,0.119 0.625,0.043 1.25,0.09 1.874,0.141 0.625,0.051 1.249,0.106 1.874,0.164 0.624,0.058 1.249,0.12 1.873,0.185 0.625,0.065 1.249,0.134 1.874,0.206 0.624,0.072 1.249,0.147 1.873,0.225 0.625,0.079 1.249,0.16 1.874,0.245 0.624,0.084 1.249,0.172 1.873,0.262 0.625,0.09 1.249,0.183 1.874,0.279 0.624,0.096 1.249,0.194 1.873,0.295 0.625,0.1 1.249,0.204 1.874,0.309 0.624,0.105 1.249,0.213 1.873,0.322 0.625,0.11 1.249,0.221 1.874,0.335 0.624,0.113 1.249,0.228 1.873,0.344 0.625,0.117 1.249,0.235 1.874,0.354 0.624,0.12 1.249,0.24 1.873,0.362 0.625,0.121 1.249,0.244 1.874,0.367 0.624,0.124 1.249,0.248 1.873,0.373 0.625,0.124 1.249,0.249 1.874,0.375 0.624,0.125 1.249,0.251 1.873,0.377"
       title="sin(0.5*x)"
       id="path17924" />
    <path
       style="fill:none;fill-opacity:1;stroke:#ff6600;stroke-width:2.64583;stroke-linecap:round;stroke-linejoin:round;stroke-dasharray:none"
       d="m -318.77819,122.29683 c 0.625,-0.189 1.249,-0.377 1.874,-0.565 0.624,-0.188 1.249,-0.374 1.873,-0.559 0.625,-0.186 1.249,-0.369 1.874,-0.55 0.624,-0.18 1.249,-0.359 1.873,-0.533 0.625,-0.175 1.249,-0.346 1.874,-0.514 0.624,-0.167 1.249,-0.33 1.873,-0.488 0.625,-0.158 1.249,-0.311 1.874,-0.458 0.624,-0.148 1.249,-0.289 1.873,-0.425 0.625,-0.135 1.249,-0.265 1.874,-0.387 0.624,-0.122 1.249,-0.237 1.873,-0.345 0.625,-0.108 1.249,-0.208 1.874,-0.301 0.624,-0.093 1.249,-0.177 1.873,-0.253 0.625,-0.077 1.249,-0.145 1.874,-0.204 0.624,-0.06 1.249,-0.11 1.873,-0.152 0.625,-0.042 1.249,-0.075 1.874,-0.1 0.624,-0.024 1.249,-0.039 1.873,-0.045 0.625,-0.006 1.249,-0.003 1.874,0.009 0.624,0.012 1.249,0.033 1.873,0.064 0.625,0.03 1.249,0.069 1.874,0.116 0.624,0.048 1.249,0.105 1.873,0.17 0.625,0.065 1.249,0.139 1.874,0.221 0.624,0.081 1.249,0.171 1.873,0.269 0.625,0.098 1.249,0.203 1.874,0.316 0.624,0.113 1.249,0.233 1.873,0.36 0.625,0.127 1.249,0.26 1.874,0.4 0.624,0.139 1.249,0.285 1.873,0.436 0.625,0.151 1.249,0.308 1.874,0.469 0.624,0.161 1.249,0.327 1.873,0.497 0.625,0.17 1.249,0.344 1.874,0.521 0.624,0.176 1.249,0.357 1.873,0.539 0.625,0.182 1.25,0.367 1.874,0.553 0.625,0.186 1.249,0.374 1.874,0.562 0.624,0.188 1.249,0.377 1.873,0.565 0.625,0.189 1.249,0.377 1.874,0.564 0.624,0.187 1.249,0.373 1.873,0.557 0.625,0.184 1.249,0.365 1.874,0.544 0.624,0.179 1.249,0.355 1.873,0.528 0.625,0.172 1.249,0.341 1.874,0.505 0.624,0.164 1.249,0.324 1.873,0.479 0.625,0.155 1.249,0.304 1.874,0.448 0.624,0.143 1.249,0.281 1.873,0.412 0.625,0.131 1.249,0.256 1.874,0.373 0.624,0.118 1.249,0.228 1.873,0.331 0.625,0.103 1.249,0.198 1.874,0.286 0.624,0.087 1.249,0.166 1.873,0.237 0.625,0.071 1.249,0.133 1.874,0.187 0.624,0.053 1.249,0.098 1.873,0.134 0.625,0.036 1.249,0.063 1.874,0.082 0.624,0.018 1.249,0.027 1.873,0.027"
       title="sin(0.75*x)"
       id="path17928" />
    <path
       style="fill:none;fill-opacity:1;stroke:#ffd42a;stroke-width:2.64583;stroke-linecap:round;stroke-linejoin:round;stroke-dasharray:none"
       d="m -318.77819,137.84683 c 0.625,-0.251 1.249,-0.503 1.874,-0.752 0.624,-0.249 1.249,-0.497 1.873,-0.74 0.625,-0.243 1.249,-0.482 1.874,-0.715 0.624,-0.233 1.249,-0.46 1.873,-0.679 0.625,-0.219 1.249,-0.43 1.874,-0.632 0.624,-0.201 1.249,-0.393 1.873,-0.574 0.625,-0.18 1.249,-0.35 1.874,-0.506 0.624,-0.157 1.249,-0.301 1.873,-0.432 0.625,-0.13 1.249,-0.246 1.874,-0.348 0.624,-0.102 1.249,-0.189 1.873,-0.261 0.625,-0.071 1.249,-0.127 1.874,-0.167 0.624,-0.04 1.249,-0.065 1.873,-0.073 0.625,-0.008 1.249,0 1.874,0.024 0.624,0.025 1.249,0.065 1.873,0.121 0.625,0.056 1.249,0.127 1.874,0.214 0.624,0.087 1.249,0.189 1.873,0.305 0.625,0.117 1.249,0.247 1.874,0.391 0.624,0.144 1.249,0.301 1.873,0.47 0.625,0.169 1.249,0.35 1.874,0.541 0.624,0.192 1.249,0.394 1.873,0.604 0.625,0.211 1.249,0.431 1.874,0.657 0.624,0.227 1.249,0.46 1.873,0.699 0.625,0.238 1.249,0.482 1.874,0.729 0.624,0.247 1.249,0.496 1.873,0.747 0.625,0.251 1.249,0.503 1.874,0.754 0.624,0.251 1.249,0.501 1.873,0.747 0.625,0.247 1.249,0.491 1.874,0.73 0.624,0.238 1.249,0.472 1.873,0.698 0.625,0.227 1.249,0.446 1.874,0.657 0.624,0.211 1.249,0.412 1.873,0.604 0.625,0.191 1.25,0.372 1.874,0.541 0.625,0.169 1.249,0.326 1.874,0.47 0.624,0.144 1.249,0.275 1.873,0.391 0.625,0.116 1.249,0.218 1.874,0.305 0.624,0.087 1.249,0.158 1.873,0.214 0.625,0.056 1.249,0.097 1.874,0.121 0.624,0.024 1.249,0.032 1.873,0.024 0.625,-0.008 1.249,-0.032 1.874,-0.073 0.624,-0.04 1.249,-0.096 1.873,-0.167 0.625,-0.072 1.249,-0.159 1.874,-0.261 0.624,-0.101 1.249,-0.218 1.873,-0.348 0.625,-0.13 1.249,-0.275 1.874,-0.431 0.624,-0.157 1.249,-0.326 1.873,-0.507 0.625,-0.181 1.249,-0.372 1.874,-0.574 0.624,-0.201 1.249,-0.413 1.873,-0.632 0.625,-0.219 1.249,-0.446 1.874,-0.679 0.624,-0.233 1.249,-0.472 1.873,-0.715 0.625,-0.243 1.249,-0.49 1.874,-0.74 0.624,-0.249 1.249,-0.5 1.873,-0.752"
       title="sin(1*x)"
       id="path17930" />
    <path
       style="fill:none;fill-opacity:1;stroke:#55d400;stroke-width:2.64583;stroke-linecap:round;stroke-linejoin:round;stroke-dasharray:none"
       d="m -318.77819,153.39683 c 0.625,-0.314 1.249,-0.628 1.874,-0.938 0.624,-0.311 1.249,-0.617 1.873,-0.915 0.625,-0.298 1.249,-0.589 1.874,-0.867 0.624,-0.279 1.249,-0.546 1.873,-0.798 0.625,-0.252 1.249,-0.488 1.874,-0.707 0.624,-0.219 1.249,-0.419 1.873,-0.599 0.625,-0.18 1.249,-0.339 1.874,-0.475 0.624,-0.136 1.249,-0.25 1.873,-0.339 0.625,-0.09 1.249,-0.155 1.874,-0.195 0.624,-0.04 1.249,-0.056 1.873,-0.045 0.625,0.01 1.249,0.045 1.874,0.105 0.624,0.06 1.249,0.145 1.873,0.253 0.625,0.109 1.249,0.241 1.874,0.395 0.624,0.155 1.249,0.331 1.873,0.527 0.625,0.196 1.249,0.411 1.874,0.644 0.624,0.233 1.249,0.482 1.873,0.746 0.625,0.263 1.249,0.54 1.874,0.827 0.624,0.288 1.249,0.585 1.873,0.889 0.625,0.304 1.249,0.615 1.874,0.928 0.624,0.312 1.249,0.628 1.873,0.941 0.625,0.314 1.249,0.626 1.874,0.932 0.624,0.307 1.249,0.607 1.873,0.899 0.625,0.291 1.249,0.573 1.874,0.841 0.624,0.269 1.249,0.525 1.873,0.764 0.625,0.239 1.249,0.462 1.874,0.666 0.624,0.204 1.249,0.388 1.873,0.551 0.625,0.163 1.249,0.304 1.874,0.422 0.624,0.118 1.249,0.213 1.873,0.283 0.625,0.07 1.249,0.115 1.874,0.135 0.624,0.02 1.249,0.015 1.873,-0.015 0.625,-0.03 1.25,-0.086 1.874,-0.165 0.625,-0.08 1.249,-0.184 1.874,-0.311 0.624,-0.128 1.249,-0.278 1.873,-0.449 0.625,-0.172 1.249,-0.364 1.874,-0.576 0.624,-0.211 1.249,-0.441 1.873,-0.686 0.625,-0.246 1.249,-0.508 1.874,-0.781 0.624,-0.274 1.249,-0.56 1.873,-0.855 0.625,-0.295 1.249,-0.599 1.874,-0.907 0.624,-0.309 1.249,-0.622 1.873,-0.936 0.625,-0.314 1.249,-0.629 1.874,-0.941 0.624,-0.312 1.249,-0.62 1.873,-0.921 0.625,-0.301 1.249,-0.596 1.874,-0.879 0.624,-0.283 1.249,-0.555 1.873,-0.813 0.625,-0.258 1.249,-0.501 1.874,-0.727 0.624,-0.225 1.249,-0.433 1.873,-0.621 0.625,-0.188 1.249,-0.356 1.874,-0.501 0.624,-0.146 1.249,-0.269 1.873,-0.368 0.625,-0.099 1.249,-0.174 1.874,-0.224 0.624,-0.05 1.249,-0.075 1.873,-0.075"
       title="sin(1.25*x)"
       id="path17934" />
    <path
       style="fill:none;fill-opacity:1;stroke:#0044aa;stroke-width:2.64583;stroke-linecap:round;stroke-linejoin:round;stroke-dasharray:none"
       d="m -318.77819,184.49783 c 0.625,-0.44 1.249,-0.88 1.874,-1.309 0.624,-0.429 1.249,-0.847 1.873,-1.243 0.625,-0.397 1.249,-0.772 1.874,-1.116 0.624,-0.344 1.249,-0.657 1.873,-0.931 0.625,-0.274 1.249,-0.51 1.874,-0.701 0.624,-0.191 1.249,-0.337 1.873,-0.435 0.625,-0.098 1.249,-0.147 1.874,-0.147 0.624,0 1.249,0.05 1.873,0.147 0.625,0.098 1.249,0.245 1.874,0.435 0.624,0.191 1.249,0.427 1.873,0.701 0.625,0.274 1.249,0.588 1.874,0.931 0.624,0.344 1.249,0.719 1.873,1.116 0.625,0.396 1.249,0.814 1.874,1.243 0.624,0.429 1.249,0.869 1.873,1.309 0.625,0.44 1.249,0.88 1.874,1.309 0.624,0.428 1.249,0.846 1.873,1.243 0.625,0.396 1.249,0.771 1.874,1.115 0.624,0.344 1.249,0.657 1.873,0.931 0.625,0.275 1.249,0.51 1.874,0.701 0.624,0.191 1.249,0.337 1.873,0.435 0.625,0.098 1.249,0.147 1.874,0.147 0.624,0.001 1.249,-0.049 1.873,-0.147 0.625,-0.098 1.249,-0.244 1.874,-0.435 0.624,-0.191 1.249,-0.426 1.873,-0.701 0.625,-0.274 1.249,-0.587 1.874,-0.931 0.624,-0.344 1.249,-0.719 1.873,-1.115 0.625,-0.397 1.249,-0.815 1.874,-1.243 0.624,-0.429 1.249,-0.869 1.873,-1.309 0.625,-0.44 1.249,-0.88 1.874,-1.309 0.624,-0.429 1.249,-0.847 1.873,-1.243 0.625,-0.397 1.25,-0.772 1.874,-1.116 0.625,-0.344 1.249,-0.657 1.874,-0.931 0.624,-0.274 1.249,-0.51 1.873,-0.701 0.625,-0.191 1.249,-0.337 1.874,-0.435 0.624,-0.098 1.249,-0.147 1.873,-0.147 0.625,0 1.249,0.05 1.874,0.147 0.624,0.098 1.249,0.245 1.873,0.435 0.625,0.191 1.249,0.427 1.874,0.701 0.624,0.274 1.249,0.588 1.873,0.931 0.625,0.344 1.249,0.719 1.874,1.116 0.624,0.396 1.249,0.814 1.873,1.243 0.625,0.429 1.249,0.869 1.874,1.309 0.624,0.44 1.249,0.88 1.873,1.309 0.625,0.428 1.249,0.846 1.874,1.243 0.624,0.396 1.249,0.771 1.873,1.115 0.625,0.344 1.249,0.657 1.874,0.931 0.624,0.275 1.249,0.51 1.873,0.701 0.625,0.191 1.249,0.337 1.874,0.435 0.624,0.098 1.249,0.147 1.873,0.147"
       title="sin(1.75*x)"
       id="path17936" />
    <path
       style="fill:none;fill-opacity:1;stroke:#660080;stroke-width:2.64583;stroke-linecap:round;stroke-linejoin:round;stroke-dasharray:none"
       d="m -318.77819,200.04783 c 0.625,-0.503 1.249,-1.006 1.874,-1.492 0.624,-0.486 1.249,-0.956 1.873,-1.394 0.625,-0.439 1.249,-0.845 1.874,-1.206 0.624,-0.361 1.249,-0.677 1.873,-0.938 0.625,-0.261 1.249,-0.466 1.874,-0.609 0.624,-0.143 1.249,-0.224 1.873,-0.24 0.625,-0.016 1.249,0.033 1.874,0.145 0.624,0.111 1.249,0.287 1.873,0.519 0.625,0.233 1.249,0.523 1.874,0.861 0.624,0.338 1.249,0.724 1.873,1.145 0.625,0.422 1.249,0.878 1.874,1.356 0.624,0.477 1.249,0.974 1.873,1.476 0.625,0.502 1.249,1.008 1.874,1.501 0.624,0.494 1.249,0.975 1.873,1.428 0.625,0.453 1.249,0.878 1.874,1.261 0.624,0.383 1.249,0.723 1.873,1.011 0.625,0.288 1.249,0.522 1.874,0.696 0.624,0.173 1.249,0.286 1.873,0.335 0.625,0.048 1.249,0.031 1.874,-0.049 0.624,-0.08 1.249,-0.224 1.873,-0.428 0.625,-0.203 1.249,-0.466 1.874,-0.78 0.624,-0.313 1.249,-0.677 1.873,-1.08 0.625,-0.403 1.249,-0.845 1.874,-1.311 0.624,-0.466 1.249,-0.956 1.873,-1.455 0.625,-0.499 1.249,-1.006 1.874,-1.504 0.624,-0.499 1.249,-0.989 1.873,-1.455 0.625,-0.466 1.249,-0.908 1.874,-1.311 0.624,-0.403 1.249,-0.767 1.873,-1.081 0.625,-0.313 1.249,-0.576 1.874,-0.779 0.624,-0.204 1.249,-0.348 1.873,-0.428 0.625,-0.081 1.25,-0.097 1.874,-0.049 0.625,0.049 1.249,0.161 1.874,0.335 0.624,0.174 1.249,0.408 1.873,0.696 0.625,0.287 1.249,0.628 1.874,1.011 0.624,0.383 1.249,0.808 1.873,1.261 0.625,0.453 1.249,0.934 1.874,1.428 0.624,0.493 1.249,0.999 1.873,1.501 0.625,0.502 1.249,0.999 1.874,1.476 0.624,0.478 1.249,0.934 1.873,1.356 0.625,0.421 1.249,0.807 1.874,1.145 0.624,0.338 1.249,0.628 1.873,0.861 0.625,0.232 1.249,0.407 1.874,0.519 0.624,0.112 1.249,0.161 1.873,0.145 0.625,-0.016 1.249,-0.097 1.874,-0.24 0.624,-0.143 1.249,-0.349 1.873,-0.609 0.625,-0.261 1.249,-0.577 1.874,-0.938 0.624,-0.361 1.249,-0.768 1.873,-1.206 0.625,-0.438 1.249,-0.908 1.874,-1.394 0.624,-0.487 1.249,-0.989 1.873,-1.492"
       title="sin(2*x)"
       id="path17938" />
    <path
       style="fill:none;fill-opacity:1;stroke:#00aad4;stroke-width:2.64583;stroke-linecap:round;stroke-linejoin:round;stroke-dasharray:none"
       d="m -318.77819,168.94783 c 0.625,-0.378 1.249,-0.755 1.874,-1.125 0.624,-0.37 1.249,-0.733 1.873,-1.083 0.625,-0.349 1.249,-0.685 1.874,-1.001 0.624,-0.316 1.249,-0.612 1.873,-0.883 0.625,-0.271 1.249,-0.517 1.874,-0.733 0.624,-0.215 1.249,-0.401 1.873,-0.554 0.625,-0.153 1.249,-0.272 1.874,-0.356 0.624,-0.084 1.249,-0.132 1.873,-0.144 0.625,-0.012 1.249,0.012 1.874,0.072 0.624,0.06 1.249,0.156 1.873,0.287 0.625,0.13 1.249,0.294 1.874,0.49 0.624,0.195 1.249,0.422 1.873,0.675 0.625,0.254 1.249,0.534 1.874,0.837 0.624,0.302 1.249,0.626 1.873,0.965 0.625,0.34 1.249,0.696 1.874,1.061 0.624,0.364 1.249,0.738 1.873,1.115 0.625,0.376 1.249,0.755 1.874,1.129 0.624,0.374 1.249,0.743 1.873,1.101 0.625,0.358 1.249,0.704 1.874,1.033 0.624,0.328 1.249,0.639 1.873,0.926 0.625,0.287 1.249,0.551 1.874,0.786 0.624,0.235 1.249,0.442 1.873,0.616 0.625,0.175 1.249,0.317 1.874,0.424 0.624,0.108 1.249,0.18 1.873,0.216 0.625,0.036 1.249,0.036 1.874,0 0.624,-0.036 1.249,-0.109 1.873,-0.216 0.625,-0.107 1.249,-0.249 1.874,-0.424 0.624,-0.174 1.249,-0.381 1.873,-0.616 0.625,-0.235 1.249,-0.499 1.874,-0.786 0.624,-0.287 1.249,-0.598 1.873,-0.926 0.625,-0.329 1.25,-0.675 1.874,-1.033 0.625,-0.358 1.249,-0.727 1.874,-1.101 0.624,-0.374 1.249,-0.753 1.873,-1.129 0.625,-0.377 1.249,-0.751 1.874,-1.115 0.624,-0.365 1.249,-0.721 1.873,-1.061 0.625,-0.339 1.249,-0.663 1.874,-0.965 0.624,-0.303 1.249,-0.583 1.873,-0.837 0.625,-0.253 1.249,-0.48 1.874,-0.675 0.624,-0.196 1.249,-0.36 1.873,-0.49 0.625,-0.131 1.249,-0.227 1.874,-0.287 0.624,-0.06 1.249,-0.084 1.873,-0.072 0.625,0.012 1.249,0.06 1.874,0.144 0.624,0.084 1.249,0.204 1.873,0.356 0.625,0.153 1.249,0.339 1.874,0.554 0.624,0.216 1.249,0.462 1.873,0.733 0.625,0.271 1.249,0.567 1.874,0.883 0.624,0.316 1.249,0.652 1.873,1.001 0.625,0.35 1.249,0.713 1.874,1.083 0.624,0.37 1.249,0.747 1.873,1.125"
       title="sin(1.5*x)"
       id="path17942" />
    <path
       style="fill:none;stroke:#000000;stroke-width:1.29617;stroke-linecap:round;stroke-dasharray:none"
       d="M 89.140742,64.583589 V 198.15583"
       id="path5133"
       sodipodi:nodetypes="cc" />
    <path
       style="fill:none;stroke:#000000;stroke-width:1.29617;stroke-linecap:round;stroke-dasharray:none"
       d="M 29.541997,64.583589 V 198.15583"
       id="path5135"
       sodipodi:nodetypes="cc" />
    <path
       style="fill:#0044aa;stroke:#000000;stroke-width:0.777701;stroke-linecap:round;stroke-dasharray:none"
       d="m 97.667596,107.40725 c 2.842284,0.79829 5.684484,-1.09136 8.526774,-4.31605 2.84228,-3.224707 5.68456,-7.464083 8.52685,-9.69827 2.84228,-2.233127 5.68457,-2.229971 8.52685,0 2.8422,2.231031 5.68449,6.471467 8.52677,9.69827 2.84228,3.22679 5.68457,5.11015 8.52686,4.31605 2.84228,-0.79409 5.68456,-4.19737 8.5271,-7.741039 -2.84254,-3.543673 -5.68482,-6.946948 -8.5271,-7.741038 -2.84229,-0.794102 -5.68458,1.089259 -8.52686,4.31605 -2.84228,3.226802 -5.68457,7.467237 -8.52677,9.698267 -2.84228,2.22997 -5.68457,2.23313 -8.52685,0 -2.84229,-2.23418 -5.68457,-6.473561 -8.52685,-9.698267 -2.84229,-3.224695 -5.68449,-5.114344 -8.526774,-4.31605 -2.842288,0.799342 -5.684567,4.197365 -8.526854,7.741038 2.842287,3.543669 5.684566,6.941699 8.526854,7.741039 z"
       title="sin(x)"
       id="path5143"
       sodipodi:nodetypes="ccccsscssccsccc" />
    <g
       id="g9664"
       transform="matrix(0.83359114,0,0,1.1516069,4.8738471,-21.446578)">
      <path
         style="fill:#660080;stroke:none;stroke-width:0.79375;stroke-linecap:round;stroke-dasharray:none"
         d="m 101.089,88.507975 c 3.408,-3.408 6.817,-6.472 10.225,-6.322 3.408,0.15 6.817,3.495 10.225,6.889 3.408,3.395 6.816,6.159 10.225,5.704 3.408,-0.454 6.816,-4.047 10.225,-7.401 3.408,-3.354 6.816,-5.796 10.225,-5.04 3.408,0.756 6.816,4.567 10.224,7.854 3.409,3.286 6.817,5.385 10.225,4.335 V 82.481569 c -3.408,-1.05 -6.816,1.049 -10.225,4.335 -3.408,3.287 -6.816,7.098 -10.224,7.854 -3.409,0.756 -6.817,-1.686 -10.225,-5.04 -3.409,-3.354 -6.817,-6.947 -10.225,-7.401 -3.409,-0.455 -6.817,2.309 -10.225,5.704 -3.408,3.394 -6.817,6.739 -10.225,6.889 -3.408,0.15 -6.817,-2.914 -10.225,-6.322"
         title="sin(x)"
         id="path9602"
         sodipodi:nodetypes="csccccccccccccsc" />
      <g
         id="g9559">
        <path
           style="fill:none;stroke:#000000;stroke-width:0.79375;stroke-linecap:round;stroke-dasharray:none"
           d="m 101.089,88.507975 c 3.408,-3.408 6.817,-6.472 10.225,-6.322 3.408,0.15 6.817,3.495 10.225,6.889 3.408,3.395 6.816,6.159 10.225,5.704 3.408,-0.454 6.816,-4.047 10.225,-7.401 3.408,-3.354 6.816,-5.796 10.225,-5.04 3.408,0.756 6.816,4.567 10.224,7.854 3.409,3.286 6.817,5.385 10.225,4.335"
           title="sin(x)"
           id="path9107" />
        <path
           style="fill:none;stroke:#000000;stroke-width:0.79375;stroke-linecap:round;stroke-dasharray:none"
           d="m 101.089,88.500569 c 3.408,3.408 6.817,6.472 10.225,6.322 3.408,-0.15 6.817,-3.495 10.225,-6.889 3.408,-3.395 6.816,-6.159 10.225,-5.704 3.408,0.454 6.816,4.047 10.225,7.401 3.408,3.354 6.816,5.796 10.225,5.04 3.408,-0.756 6.816,-4.567 10.224,-7.854 3.409,-3.286 6.817,-5.385 10.225,-4.335"
           title="sin(x)"
           id="path9479" />
      </g>
    </g>
    <g
       id="g9678"
       transform="matrix(0.83359114,0,0,1.1516069,4.8738471,-29.921533)">
      <path
         style="fill:#008000;stroke:none;stroke-width:0.79375;stroke-linecap:round;stroke-dasharray:none"
         d="m 101.43019,129.62116 c 3.3755,2.62566 6.752,5.17428 10.12751,6.20745 3.37551,1.03393 6.75201,0.48537 10.12752,-1.32747 3.37551,-1.81362 6.75102,-4.79292 10.12752,-7.25217 3.37551,-2.45925 6.75101,-4.25284 10.12751,-4.37226 3.37551,-0.11941 6.75102,1.44998 10.12752,3.81523 3.37551,2.36526 6.75102,5.39232 10.12653,7.37081 3.3765,1.9785 6.75201,2.789 10.12751,1.97927 v -12.86406 c -3.3755,-0.80974 -6.75101,7.7e-4 -10.12751,1.97926 -3.37551,1.97849 -6.75102,5.00556 -10.12653,7.37082 -3.3765,2.36525 -6.75201,3.93464 -10.12752,3.81522 -3.3765,-0.11942 -6.752,-1.913 -10.12751,-4.37225 -3.3765,-2.45925 -6.75201,-5.43855 -10.12752,-7.25217 -3.37551,-1.81285 -6.75201,-2.3614 -10.12752,-1.32747 -3.37551,1.03316 -6.75201,3.58178 -10.12751,6.20745"
         title="sin(x)"
         id="path9596"
         sodipodi:nodetypes="ccccsccccccscccc" />
      <g
         id="g9570"
         transform="translate(0,-0.74913092)">
        <path
           style="fill:none;stroke:#000000;stroke-width:0.79375;stroke-linecap:round;stroke-dasharray:none"
           d="m 101.43019,130.34795 c 3.3755,-2.62567 6.752,-5.17429 10.12751,-6.20745 3.37551,-1.03393 6.75201,-0.48538 10.12752,1.32747 3.37551,1.81362 6.75102,4.79292 10.12752,7.25217 3.37551,2.45925 6.75101,4.25283 10.12751,4.37225 3.37551,0.11942 6.75102,-1.44997 10.12752,-3.81522 3.37551,-2.36526 6.75102,-5.39233 10.12653,-7.37082 3.3765,-1.97849 6.75201,-2.789 10.12751,-1.97926"
           title="sin(x)"
           id="path8343" />
        <path
           style="fill:none;stroke:#000000;stroke-width:0.79375;stroke-linecap:round;stroke-dasharray:none"
           d="m 101.43019,130.37029 c 3.3755,2.62566 6.752,5.17428 10.12751,6.20745 3.37551,1.03393 6.75201,0.48537 10.12752,-1.32747 3.37551,-1.81362 6.75102,-4.79292 10.12752,-7.25217 3.37551,-2.45925 6.75101,-4.25284 10.12751,-4.37226 3.37551,-0.11941 6.75102,1.44998 10.12752,3.81523 3.37551,2.36526 6.75102,5.39232 10.12653,7.37081 3.3765,1.9785 6.75201,2.789 10.12751,1.97927"
           title="sin(x)"
           id="path9481" />
      </g>
    </g>
    <g
       id="g9685"
       transform="matrix(0.83359114,0,0,1.1516069,4.8738471,-34.15901)">
      <g
         id="g9576"
         transform="translate(0,0.74595418)"
         style="fill:#ffd42a">
        <path
           style="fill:#ffd42a;stroke:#000000;stroke-width:0.79375;stroke-linecap:round;stroke-dasharray:none"
           d="m 29.387422,150.14118 c 3.414357,-2.21793 6.828713,-4.41243 10.243069,-5.79603 3.414356,-1.38361 6.828612,-1.92442 10.242968,-1.43176 3.414357,0.49265 6.828713,2.01292 10.243069,4.01153 3.414356,1.99796 6.828712,4.4339 10.243069,6.43316 3.414256,1.99861 6.828612,3.51628 10.242968,4.01089 3.414356,0.49461 6.828713,-0.0495 10.243069,-1.43176 3.414356,-1.3823 6.828712,-3.5781 10.243366,-5.79603"
           title="sin(x)"
           id="path5110" />
        <path
           style="fill:#ffd42a;stroke:#000000;stroke-width:0.79375;stroke-linecap:round;stroke-dasharray:none"
           d="m 29.387422,150.14183 c 3.414357,2.21793 6.828713,4.41243 10.243069,5.79603 3.414356,1.38361 6.828612,1.92442 10.242968,1.43177 3.414357,-0.49266 6.828713,-2.01293 10.243069,-4.01154 3.414356,-1.99796 6.828712,-4.4339 10.243069,-6.43316 3.414256,-1.99861 6.828612,-3.51628 10.242968,-4.01089 3.414356,-0.49461 6.828713,0.0495 10.243069,1.43176 3.414356,1.3823 6.828712,3.57811 10.243366,5.79603"
           title="sin(x)"
           id="path9483" />
        <path
           style="fill:#ffd42a;stroke:#000000;stroke-width:0.79375;stroke-linecap:round;stroke-dasharray:none"
           d="m 101.0886,150.14118 c 3.41436,-2.21793 6.82871,-4.41243 10.24307,-5.79603 3.41436,-1.3836 6.82861,-1.92442 10.24297,-1.43176 3.41436,0.49265 6.82871,2.01292 10.24307,4.01153 3.41435,1.99796 6.82871,4.43391 10.24307,6.43317 3.41425,1.9986 6.82861,3.51627 10.24296,4.01088 3.41436,0.49461 6.82872,-0.0495 10.24307,-1.43176 3.41436,-1.3823 6.82872,-3.5781 10.24337,-5.79603"
           title="sin(x)"
           id="path9487" />
        <path
           style="fill:#ffd42a;stroke:#000000;stroke-width:0.79375;stroke-linecap:round;stroke-dasharray:none"
           d="m 101.0886,150.14184 c 3.41436,2.21792 6.82871,4.41242 10.24307,5.79603 3.41436,1.3836 6.82861,1.92441 10.24297,1.43176 3.41436,-0.49266 6.82871,-2.01293 10.24307,-4.01154 3.41435,-1.99796 6.82871,-4.4339 10.24307,-6.43316 3.41425,-1.99861 6.82861,-3.51628 10.24296,-4.01089 3.41436,-0.4946 6.82872,0.0495 10.24307,1.43177 3.41436,1.3823 6.82872,3.5781 10.24337,5.79603"
           title="sin(x)"
           id="path9489" />
      </g>
    </g>
    <g
       id="g9690"
       transform="matrix(0.83359114,0,0,1.1516069,4.8738471,-38.396491)">
      <path
         style="fill:#ff6600;stroke:none;stroke-width:0.793749;stroke-linecap:round;stroke-dasharray:none"
         d="m 100.87756,172.3884 c 3.42817,-1.56353 6.85735,-3.12155 10.28553,-4.34466 3.42817,-1.22265 6.85735,-2.10029 10.28552,-2.44897 3.42817,-0.34821 6.85635,-0.1624 10.28552,0.51567 3.42818,0.67762 6.85635,1.84614 10.28553,3.25459 3.42817,1.40846 6.85635,3.04952 10.28552,4.57404 3.42818,1.52453 6.85635,2.92198 10.28452,3.89734 3.42918,0.97537 6.85736,1.51949 10.28553,1.5204 v -13.93304 c -3.42817,9.2e-4 -6.85635,0.54503 -10.28553,1.5204 -3.42817,0.97536 -6.85634,2.37281 -10.28452,3.89734 -3.42917,1.52453 -6.85735,3.16558 -10.28552,4.57404 -3.42918,1.40846 -6.85735,2.57697 -10.28553,3.25459 -3.42917,0.67808 -6.85735,0.86388 -10.28552,0.51567 -3.42817,-0.34868 -6.85735,-1.22632 -10.28552,-2.44897 -3.42818,-1.22311 -6.85736,-2.78113 -10.28553,-4.34465"
         title="sin(x)"
         id="path9590"
         sodipodi:nodetypes="cccccccccccccccc" />
      <path
         style="fill:none;stroke:#000000;stroke-width:0.793749;stroke-linecap:round;stroke-dasharray:none"
         d="m 100.87756,172.3884 c 3.42817,-1.56353 6.85735,-3.12155 10.28553,-4.34466 3.42817,-1.22265 6.85735,-2.10029 10.28552,-2.44897 3.42817,-0.34821 6.85635,-0.1624 10.28552,0.51567 3.42818,0.67762 6.85635,1.84614 10.28553,3.25459 3.42817,1.40846 6.85635,3.04952 10.28552,4.57404 3.42818,1.52453 6.85635,2.92198 10.28452,3.89734 3.42918,0.97537 6.85736,1.51949 10.28553,1.5204"
         title="sin(x)"
         id="path7579" />
      <path
         style="fill:none;stroke:#000000;stroke-width:0.793749;stroke-linecap:round;stroke-dasharray:none"
         d="m 100.87756,172.39219 c 3.42817,1.56352 6.85735,3.12154 10.28553,4.34465 3.42817,1.22265 6.85735,2.10029 10.28552,2.44897 3.42817,0.34821 6.85635,0.16241 10.28552,-0.51567 3.42818,-0.67762 6.85635,-1.84613 10.28553,-3.25459 3.42817,-1.40846 6.85635,-3.04951 10.28552,-4.57404 3.42818,-1.52453 6.85635,-2.92198 10.28452,-3.89734 3.42918,-0.97537 6.85736,-1.51948 10.28553,-1.5204"
         title="sin(x)"
         id="path9517" />
    </g>
    <g
       id="g9697"
       transform="matrix(0.83359114,0,0,1.1516069,4.8738471,-42.633965)">
      <g
         id="g9586"
         transform="translate(0,-3.9254515)"
         style="fill:#aa0000">
        <path
           style="fill:#aa0000;stroke:#000000;stroke-width:0.79375;stroke-linecap:round;stroke-dasharray:none"
           d="m 29.235154,197.97585 c 3.421607,-1.13159 6.843214,-2.26252 10.26482,-3.28221 3.421607,-1.0197 6.843113,-1.9265 10.26472,-2.63208 3.421607,-0.70592 6.843213,-1.20862 10.26482,-1.46064 3.421607,-0.25235 6.843214,-0.25169 10.26482,0 3.421507,0.25135 6.843113,0.75506 10.26472,1.46064 3.421607,0.70525 6.843213,1.61272 10.26482,2.63208 3.421607,1.01936 6.843213,2.15062 10.265126,3.28221"
           title="sin(x)"
           id="path5092" />
        <path
           style="fill:#aa0000;stroke:#000000;stroke-width:0.79375;stroke-linecap:round;stroke-dasharray:none"
           d="m 101.089,197.97585 c 3.4216,1.13159 6.84321,2.26252 10.26482,3.28221 3.4216,1.0197 6.84311,1.9265 10.26471,2.63208 3.42161,0.70592 6.84322,1.20863 10.26482,1.46064 3.42161,0.25235 6.84322,0.25169 10.26483,0 3.4215,-0.25135 6.84311,-0.75505 10.26471,-1.46064 3.42161,-0.70525 6.84322,-1.61272 10.26482,-2.63208 3.42161,-1.01936 6.84322,-2.15062 10.26513,-3.28221"
           title="sin(x)"
           id="path5629" />
        <path
           style="fill:#aa0000;stroke:#000000;stroke-width:0.79375;stroke-linecap:round;stroke-dasharray:none"
           d="m 29.235154,197.97585 c 3.421607,1.13159 6.843214,2.26252 10.26482,3.28221 3.421607,1.0197 6.843113,1.9265 10.26472,2.63208 3.421607,0.70592 6.843213,1.20863 10.26482,1.46064 3.421607,0.25235 6.843214,0.25169 10.26482,0 3.421507,-0.25135 6.843113,-0.75505 10.26472,-1.46064 3.421607,-0.70525 6.843213,-1.61272 10.26482,-2.63208 3.421607,-1.01936 6.843213,-2.15062 10.265126,-3.28221"
           title="sin(x)"
           id="path9523" />
        <path
           style="fill:#aa0000;stroke:#000000;stroke-width:0.79375;stroke-linecap:round;stroke-dasharray:none"
           d="m 101.089,197.97585 c 3.4216,-1.13159 6.84321,-2.26252 10.26482,-3.28221 3.4216,-1.0197 6.84311,-1.9265 10.26471,-2.63208 3.42161,-0.70592 6.84322,-1.20862 10.26482,-1.46064 3.42161,-0.25235 6.84322,-0.25169 10.26483,0 3.4215,0.25135 6.84311,0.75506 10.26471,1.46064 3.42161,0.70525 6.84322,1.61272 10.26482,2.63208 3.42161,1.01936 6.84322,2.15062 10.26513,3.28221"
           title="sin(x)"
           id="path9525" />
      </g>
    </g>
    <text
       xml:space="preserve"
       style="font-size:7.7173px;font-family:sans-serif;-inkscape-font-specification:sans-serif;text-align:center;text-anchor:middle;fill:#000000;stroke:none;stroke-width:0.361749;stroke-linecap:round;stroke-dasharray:none"
       x="58.678131"
       y="208.78587"
       id="text9788"><tspan
         sodipodi:role="line"
         id="tspan9786"
         style="fill:#000000;stroke-width:0.361749"
         x="58.678131"
         y="208.78587">boundaries</tspan></text>
    <path
       style="fill:none;stroke:#000000;stroke-width:0.6;stroke-linecap:round;stroke-dasharray:none"
       d="m 79.3057,201.8168 c 0,0 3.47615,-0.13036 4.200965,-1.47589 0.724816,-1.34554 -1.602299,-3.31145 -1.142939,-4.5768 0.459361,-1.26535 2.715402,-1.9782 2.715402,-1.9782"
       id="path9790"
       sodipodi:nodetypes="czzc" />
    <path
       style="fill:none;stroke:#000000;stroke-width:0.6;stroke-linecap:round;stroke-dasharray:none"
       d="m 39.33576,201.65993 c 0,0 -3.438406,0.0793 -4.220971,-1.45466 -0.782564,-1.53401 1.927678,-4.30424 1.359086,-5.78034 -0.568593,-1.47609 -4.476432,-1.35095 -4.476432,-1.35095"
       id="path9792"
       sodipodi:nodetypes="czzc" />
    <text
       xml:space="preserve"
       style="font-size:7.7173px;font-family:sans-serif;-inkscape-font-specification:sans-serif;text-align:center;text-anchor:middle;fill:#000000;stroke:none;stroke-width:0.361749;stroke-linecap:round;stroke-dasharray:none"
       x="123.57657"
       y="208.53894"
       id="text12080"><tspan
         sodipodi:role="line"
         id="tspan12078"
         style="fill:#000000;stroke-width:0.361749"
         x="123.57657"
         y="208.53894">spectrum</tspan><tspan
         sodipodi:role="line"
         style="fill:#000000;stroke-width:0.361749"
         x="123.57657"
         y="218.18556"
         id="tspan12176">of waves</tspan></text>
    <path
       style="fill:#0044aa;stroke:#000000;stroke-width:0.777701;stroke-linecap:round;stroke-dasharray:none"
       d="m 38.024186,107.40725 c 2.842284,0.79829 5.684484,-1.09136 8.526774,-4.31605 2.84228,-3.224707 5.68456,-7.464083 8.52685,-9.69827 2.84228,-2.233127 5.68457,-2.229971 8.52685,0 2.8422,2.231031 5.68449,6.471467 8.52677,9.69827 2.84228,3.22679 5.68457,5.11015 8.52686,4.31605 2.84228,-0.79409 5.68456,-4.19737 8.5271,-7.741039 -2.84254,-3.543673 -5.68482,-6.946948 -8.5271,-7.741038 -2.84229,-0.794102 -5.68458,1.089259 -8.52686,4.31605 -2.84228,3.226802 -5.68457,7.467237 -8.52677,9.698267 -2.84228,2.22997 -5.68457,2.23313 -8.52685,0 -2.84229,-2.23418 -5.68457,-6.473561 -8.52685,-9.698267 -2.84229,-3.224695 -5.68449,-5.114344 -8.526774,-4.31605 -2.842288,0.799342 -5.684567,4.197365 -8.526854,7.741038 2.842287,3.543669 5.684566,6.941699 8.526854,7.741039 z"
       title="sin(x)"
       id="path471"
       sodipodi:nodetypes="ccccsscssccsccc" />
    <path
       style="fill:#f4e3d7;stroke:#000000;stroke-width:0.264583px;stroke-linecap:butt;stroke-linejoin:miter;stroke-opacity:1"
       d="m -149.29313,-16.90297 67.045333,38.708638 V 135.47447 L -149.29313,96.765838 Z"
       id="path536"
       sodipodi:nodetypes="ccccc" />
    <path
       style="fill:none;stroke:#000000;stroke-width:0.264583px;stroke-linecap:butt;stroke-linejoin:miter;stroke-opacity:1"
       d="m -634.22174,-19.084305 h 173.67496"
       id="path7393" />
    <path
       style="opacity:1;fill:none;fill-opacity:1;stroke:#000000;stroke-width:0.264583;stroke-linecap:round;stroke-linejoin:round;stroke-dasharray:none"
       d="m -717.85725,281.75184 v 0 c 0.809,-3.235 1.618,-6.461 2.427,-9.054 0.809,-2.594 1.617,-4.537 2.426,-5.459 0.809,-0.921 1.618,-0.81 2.427,0.306 0.809,1.117 1.617,3.238 2.426,5.949 0.809,2.711 1.618,6 2.427,9.228 0.809,3.229 1.618,6.38 2.426,8.844 0.809,2.464 1.618,4.225 2.427,4.946 0.809,0.721 1.618,0.392 2.426,-0.916 0.809,-1.309 1.618,-3.596 2.427,-6.415 0.809,-2.818 1.618,-6.155 2.427,-9.364 0.808,-3.209 1.617,-6.272 2.426,-8.596 0.809,-2.325 1.618,-3.896 2.427,-4.413 0.808,-0.518 1.617,0.027 2.426,1.522 0.809,1.496 1.618,3.939 2.427,6.854 0.809,2.914 1.617,6.286 2.426,9.462 0.809,3.176 1.618,6.138 2.427,8.313 0.809,2.176 1.618,3.551 2.426,3.862 0.809,0.312 1.618,-0.446 2.427,-2.123 0.809,-1.676 1.618,-4.266 2.426,-7.264 0.809,-2.999 1.618,-6.392 2.427,-9.522 0.809,-3.129 1.618,-5.978 2.427,-7.996 0.808,-2.018 1.617,-3.19 2.426,-3.295 0.809,-0.104 1.618,0.865 2.427,2.715 0.808,1.85 1.617,4.576 2.426,7.646 0.809,3.07 1.618,6.47 2.427,9.541 0.809,3.071 1.617,5.794 2.426,7.646 0.809,1.852 1.618,2.817 2.427,2.715 0.809,-0.103 1.617,-1.279 2.426,-3.295 0.809,-2.017 1.618,-4.867 2.427,-7.996 0.809,-3.13 1.618,-6.522 2.426,-9.522 0.809,-2.999 1.618,-5.586 2.427,-7.264 0.809,-1.679 1.618,-2.433 2.426,-2.123 0.809,0.309 1.618,1.687 2.427,3.861 0.809,2.175 1.618,5.138 2.427,8.314 0.808,3.175 1.617,6.547 2.426,9.462 0.809,2.915 1.618,5.356 2.427,6.854 0.808,1.497 1.617,2.038 2.426,1.522 0.809,-0.515 1.618,-2.089 2.427,-4.413 0.809,-2.323 1.617,-5.387 2.426,-8.596 0.809,-3.208 1.618,-6.545 2.427,-9.364 0.809,-2.82 1.617,-5.104 2.426,-6.415 0.809,-1.31 1.618,-1.635 2.427,-0.916 0.809,0.719 1.618,2.483 2.426,4.946 0.809,2.463 1.618,5.615 2.427,8.844 0.809,3.228 1.618,6.516 2.426,9.228 0.809,2.712 1.618,4.83 2.427,5.949 0.809,1.118 1.618,1.225 2.427,0.306 0.808,-0.92 1.617,-2.867 2.426,-5.459 0.809,-2.592 1.618,-5.819 2.427,-9.055 v 0"
       title="4*sin(x)"
       id="path11244" />
    <path
       id="path13274"
       style="fill:#b3b3b3;fill-opacity:1;stroke:#000000;stroke-width:0.529167;stroke-linecap:round;stroke-linejoin:round;stroke-dasharray:none;stroke-opacity:1"
       d="M -363.53336,57.213434 V 183.25484 l 62.81064,62.81063 v -126.0414 z" />
    <rect
       style="fill:#999999;fill-opacity:1;stroke:#000000;stroke-width:0.529167;stroke-linecap:round;stroke-linejoin:round;stroke-dasharray:none"
       id="rect13276"
       width="8.8063221"
       height="126.14356"
       x="-300.79532"
       y="119.95148" />
    <path
       id="path13278"
       style="fill:#cccccc;fill-opacity:1;stroke:#000000;stroke-width:0.529167;stroke-linecap:round;stroke-linejoin:round;stroke-dasharray:none;stroke-opacity:1"
       d="m -355.04086,57.143154 -8.4925,0.07028 62.73984,62.739846 8.80452,-0.002 z"
       sodipodi:nodetypes="ccccc" />
    <path
       id="path18075"
       style="fill:#4d4d4d;fill-opacity:1;stroke:#000000;stroke-width:0.264583px;stroke-linecap:butt;stroke-linejoin:miter;stroke-opacity:1"
       d="m -369.42919,132.09607 -19.37401,19.37401 19.37401,19.37402 v -10.27225 h 9.08472 v 10.27225 l 19.37401,-19.37402 -19.37401,-19.37401 v 10.27224 h -9.08472 z" />
    <path
       style="fill:none;fill-opacity:1;stroke:#d40000;stroke-width:2.64583;stroke-linecap:round;stroke-linejoin:round;stroke-dasharray:none"
       d="m -419.44491,106.74683 c 0.625,-0.126 1.249,-0.252 1.874,-0.377 0.624,-0.126 1.249,-0.251 1.873,-0.375 0.625,-0.125 1.249,-0.249 1.874,-0.373 0.624,-0.123 1.249,-0.246 1.873,-0.367 0.625,-0.122 1.249,-0.242 1.874,-0.362 0.624,-0.119 1.249,-0.237 1.873,-0.354 0.625,-0.116 1.249,-0.231 1.874,-0.344 0.624,-0.114 1.249,-0.225 1.873,-0.335 0.625,-0.109 1.249,-0.217 1.874,-0.322 0.624,-0.105 1.249,-0.209 1.873,-0.309 0.625,-0.101 1.249,-0.199 1.874,-0.295 0.624,-0.096 1.249,-0.189 1.873,-0.279 0.625,-0.09 1.249,-0.178 1.874,-0.262 0.624,-0.085 1.249,-0.166 1.873,-0.245 0.625,-0.078 1.249,-0.153 1.874,-0.225 0.624,-0.072 1.249,-0.141 1.873,-0.206 0.625,-0.065 1.249,-0.127 1.874,-0.185 0.624,-0.058 1.249,-0.113 1.873,-0.164 0.625,-0.051 1.249,-0.098 1.874,-0.141 0.624,-0.044 1.249,-0.083 1.873,-0.119 0.625,-0.036 1.249,-0.068 1.874,-0.096 0.624,-0.028 1.249,-0.052 1.873,-0.072 0.625,-0.02 1.249,-0.036 1.874,-0.048 0.624,-0.012 1.249,-0.02 1.873,-0.024 0.625,-0.004 1.249,-0.004 1.874,0 0.624,0.004 1.249,0.012 1.873,0.024 0.625,0.012 1.249,0.028 1.874,0.048 0.624,0.02 1.249,0.044 1.873,0.072 0.625,0.028 1.249,0.06 1.874,0.096 0.624,0.036 1.249,0.075 1.873,0.119 0.625,0.043 1.25,0.09 1.874,0.141 0.625,0.051 1.249,0.106 1.874,0.164 0.624,0.058 1.249,0.12 1.873,0.185 0.625,0.065 1.249,0.134 1.874,0.206 0.624,0.072 1.249,0.147 1.873,0.225 0.625,0.079 1.249,0.16 1.874,0.245 0.624,0.084 1.249,0.172 1.873,0.262 0.625,0.09 1.249,0.183 1.874,0.279 0.624,0.096 1.249,0.194 1.873,0.295 0.625,0.1 1.249,0.204 1.874,0.309 0.624,0.105 1.249,0.213 1.873,0.322 0.625,0.11 1.249,0.221 1.874,0.335 0.624,0.113 1.249,0.228 1.873,0.344 0.625,0.117 1.249,0.235 1.874,0.354 0.624,0.12 1.249,0.24 1.873,0.362 0.625,0.121 1.249,0.244 1.874,0.367 0.624,0.124 1.249,0.248 1.873,0.373 0.625,0.124 1.249,0.249 1.874,0.375 0.624,0.125 1.249,0.251 1.873,0.377"
       title="sin(0.5*x)"
       id="path16687" />
    <path
       style="fill:none;fill-opacity:1;stroke:#ffd42a;stroke-width:2.64583;stroke-linecap:round;stroke-linejoin:round;stroke-dasharray:none"
       d="m -419.44491,137.84683 c 0.625,-0.251 1.249,-0.503 1.874,-0.752 0.624,-0.249 1.249,-0.497 1.873,-0.74 0.625,-0.243 1.249,-0.482 1.874,-0.715 0.624,-0.233 1.249,-0.46 1.873,-0.679 0.625,-0.219 1.249,-0.43 1.874,-0.632 0.624,-0.201 1.249,-0.393 1.873,-0.574 0.625,-0.18 1.249,-0.35 1.874,-0.506 0.624,-0.157 1.249,-0.301 1.873,-0.432 0.625,-0.13 1.249,-0.246 1.874,-0.348 0.624,-0.102 1.249,-0.189 1.873,-0.261 0.625,-0.071 1.249,-0.127 1.874,-0.167 0.624,-0.04 1.249,-0.065 1.873,-0.073 0.625,-0.008 1.249,0 1.874,0.024 0.624,0.025 1.249,0.065 1.873,0.121 0.625,0.056 1.249,0.127 1.874,0.214 0.624,0.087 1.249,0.189 1.873,0.305 0.625,0.117 1.249,0.247 1.874,0.391 0.624,0.144 1.249,0.301 1.873,0.47 0.625,0.169 1.249,0.35 1.874,0.541 0.624,0.192 1.249,0.394 1.873,0.604 0.625,0.211 1.249,0.431 1.874,0.657 0.624,0.227 1.249,0.46 1.873,0.699 0.625,0.238 1.249,0.482 1.874,0.729 0.624,0.247 1.249,0.496 1.873,0.747 0.625,0.251 1.249,0.503 1.874,0.754 0.624,0.251 1.249,0.501 1.873,0.747 0.625,0.247 1.249,0.491 1.874,0.73 0.624,0.238 1.249,0.472 1.873,0.698 0.625,0.227 1.249,0.446 1.874,0.657 0.624,0.211 1.249,0.412 1.873,0.604 0.625,0.191 1.25,0.372 1.874,0.541 0.625,0.169 1.249,0.326 1.874,0.47 0.624,0.144 1.249,0.275 1.873,0.391 0.625,0.116 1.249,0.218 1.874,0.305 0.624,0.087 1.249,0.158 1.873,0.214 0.625,0.056 1.249,0.097 1.874,0.121 0.624,0.024 1.249,0.032 1.873,0.024 0.625,-0.008 1.249,-0.032 1.874,-0.073 0.624,-0.04 1.249,-0.096 1.873,-0.167 0.625,-0.072 1.249,-0.159 1.874,-0.261 0.624,-0.101 1.249,-0.218 1.873,-0.348 0.625,-0.13 1.249,-0.275 1.874,-0.431 0.624,-0.157 1.249,-0.326 1.873,-0.507 0.625,-0.181 1.249,-0.372 1.874,-0.574 0.624,-0.201 1.249,-0.413 1.873,-0.632 0.625,-0.219 1.249,-0.446 1.874,-0.679 0.624,-0.233 1.249,-0.472 1.873,-0.715 0.625,-0.243 1.249,-0.49 1.874,-0.74 0.624,-0.249 1.249,-0.5 1.873,-0.752"
       title="sin(1*x)"
       id="path16863" />
    <path
       style="fill:none;fill-opacity:1;stroke:#00aad4;stroke-width:2.64583;stroke-linecap:round;stroke-linejoin:round;stroke-dasharray:none"
       d="m -419.44491,168.94783 c 0.625,-0.378 1.249,-0.755 1.874,-1.125 0.624,-0.37 1.249,-0.733 1.873,-1.083 0.625,-0.349 1.249,-0.685 1.874,-1.001 0.624,-0.316 1.249,-0.612 1.873,-0.883 0.625,-0.271 1.249,-0.517 1.874,-0.733 0.624,-0.215 1.249,-0.401 1.873,-0.554 0.625,-0.153 1.249,-0.272 1.874,-0.356 0.624,-0.084 1.249,-0.132 1.873,-0.144 0.625,-0.012 1.249,0.012 1.874,0.072 0.624,0.06 1.249,0.156 1.873,0.287 0.625,0.13 1.249,0.294 1.874,0.49 0.624,0.195 1.249,0.422 1.873,0.675 0.625,0.254 1.249,0.534 1.874,0.837 0.624,0.302 1.249,0.626 1.873,0.965 0.625,0.34 1.249,0.696 1.874,1.061 0.624,0.364 1.249,0.738 1.873,1.115 0.625,0.376 1.249,0.755 1.874,1.129 0.624,0.374 1.249,0.743 1.873,1.101 0.625,0.358 1.249,0.704 1.874,1.033 0.624,0.328 1.249,0.639 1.873,0.926 0.625,0.287 1.249,0.551 1.874,0.786 0.624,0.235 1.249,0.442 1.873,0.616 0.625,0.175 1.249,0.317 1.874,0.424 0.624,0.108 1.249,0.18 1.873,0.216 0.625,0.036 1.249,0.036 1.874,0 0.624,-0.036 1.249,-0.109 1.873,-0.216 0.625,-0.107 1.249,-0.249 1.874,-0.424 0.624,-0.174 1.249,-0.381 1.873,-0.616 0.625,-0.235 1.249,-0.499 1.874,-0.786 0.624,-0.287 1.249,-0.598 1.873,-0.926 0.625,-0.329 1.25,-0.675 1.874,-1.033 0.625,-0.358 1.249,-0.727 1.874,-1.101 0.624,-0.374 1.249,-0.753 1.873,-1.129 0.625,-0.377 1.249,-0.751 1.874,-1.115 0.624,-0.365 1.249,-0.721 1.873,-1.061 0.625,-0.339 1.249,-0.663 1.874,-0.965 0.624,-0.303 1.249,-0.583 1.873,-0.837 0.625,-0.253 1.249,-0.48 1.874,-0.675 0.624,-0.196 1.249,-0.36 1.873,-0.49 0.625,-0.131 1.249,-0.227 1.874,-0.287 0.624,-0.06 1.249,-0.084 1.873,-0.072 0.625,0.012 1.249,0.06 1.874,0.144 0.624,0.084 1.249,0.204 1.873,0.356 0.625,0.153 1.249,0.339 1.874,0.554 0.624,0.216 1.249,0.462 1.873,0.733 0.625,0.271 1.249,0.567 1.874,0.883 0.624,0.316 1.249,0.652 1.873,1.001 0.625,0.35 1.249,0.713 1.874,1.083 0.624,0.37 1.249,0.747 1.873,1.125"
       title="sin(1.5*x)"
       id="path17039" />
    <path
       style="fill:none;fill-opacity:1;stroke:#660080;stroke-width:2.64583;stroke-linecap:round;stroke-linejoin:round;stroke-dasharray:none"
       d="m -419.44491,200.04783 c 0.625,-0.503 1.249,-1.006 1.874,-1.492 0.624,-0.486 1.249,-0.956 1.873,-1.394 0.625,-0.439 1.249,-0.845 1.874,-1.206 0.624,-0.361 1.249,-0.677 1.873,-0.938 0.625,-0.261 1.249,-0.466 1.874,-0.609 0.624,-0.143 1.249,-0.224 1.873,-0.24 0.625,-0.016 1.249,0.033 1.874,0.145 0.624,0.111 1.249,0.287 1.873,0.519 0.625,0.233 1.249,0.523 1.874,0.861 0.624,0.338 1.249,0.724 1.873,1.145 0.625,0.422 1.249,0.878 1.874,1.356 0.624,0.477 1.249,0.974 1.873,1.476 0.625,0.502 1.249,1.008 1.874,1.501 0.624,0.494 1.249,0.975 1.873,1.428 0.625,0.453 1.249,0.878 1.874,1.261 0.624,0.383 1.249,0.723 1.873,1.011 0.625,0.288 1.249,0.522 1.874,0.696 0.624,0.173 1.249,0.286 1.873,0.335 0.625,0.048 1.249,0.031 1.874,-0.049 0.624,-0.08 1.249,-0.224 1.873,-0.428 0.625,-0.203 1.249,-0.466 1.874,-0.78 0.624,-0.313 1.249,-0.677 1.873,-1.08 0.625,-0.403 1.249,-0.845 1.874,-1.311 0.624,-0.466 1.249,-0.956 1.873,-1.455 0.625,-0.499 1.249,-1.006 1.874,-1.504 0.624,-0.499 1.249,-0.989 1.873,-1.455 0.625,-0.466 1.249,-0.908 1.874,-1.311 0.624,-0.403 1.249,-0.767 1.873,-1.081 0.625,-0.313 1.249,-0.576 1.874,-0.779 0.624,-0.204 1.249,-0.348 1.873,-0.428 0.625,-0.081 1.25,-0.097 1.874,-0.049 0.625,0.049 1.249,0.161 1.874,0.335 0.624,0.174 1.249,0.408 1.873,0.696 0.625,0.287 1.249,0.628 1.874,1.011 0.624,0.383 1.249,0.808 1.873,1.261 0.625,0.453 1.249,0.934 1.874,1.428 0.624,0.493 1.249,0.999 1.873,1.501 0.625,0.502 1.249,0.999 1.874,1.476 0.624,0.478 1.249,0.934 1.873,1.356 0.625,0.421 1.249,0.807 1.874,1.145 0.624,0.338 1.249,0.628 1.873,0.861 0.625,0.232 1.249,0.407 1.874,0.519 0.624,0.112 1.249,0.161 1.873,0.145 0.625,-0.016 1.249,-0.097 1.874,-0.24 0.624,-0.143 1.249,-0.349 1.873,-0.609 0.625,-0.261 1.249,-0.577 1.874,-0.938 0.624,-0.361 1.249,-0.768 1.873,-1.206 0.625,-0.438 1.249,-0.908 1.874,-1.394 0.624,-0.487 1.249,-0.989 1.873,-1.492"
       title="sin(2*x)"
       id="path17919" />
    <path
       id="path540"
       style="fill:#b3b3b3;stroke:#000000;stroke-width:0.529167;stroke-linecap:round;stroke-linejoin:round;stroke-dasharray:none;stroke-opacity:1"
       d="M -463.90627,57.213434 V 183.25484 l 62.81064,62.81063 v -126.0414 z" />
    <rect
       style="fill:#999999;stroke:#000000;stroke-width:0.529167;stroke-linecap:round;stroke-linejoin:round;stroke-dasharray:none"
       id="rect597"
       width="8.8063221"
       height="126.14356"
       x="-401.16824"
       y="119.95148" />
    <path
       id="path599"
       style="fill:#cccccc;stroke:#000000;stroke-width:0.529167;stroke-linecap:round;stroke-linejoin:round;stroke-dasharray:none;stroke-opacity:1"
       d="m -455.41377,57.143154 -8.4925,0.07028 62.73984,62.739846 8.80452,-0.002 z"
       sodipodi:nodetypes="ccccc" />
    <path
       id="path18867"
       style="fill:#4d4d4d;stroke:#000000;stroke-width:0.264583px;stroke-linecap:butt;stroke-linejoin:miter;stroke-opacity:1"
       d="m -489.28679,92.960924 v 29.327926 h -17.88676 v 58.36284 h 17.88676 v 29.32741 l 33.78037,-58.50909 z" />
    <path
       style="fill:none;fill-opacity:1;stroke:#0044aa;stroke-width:2.64583;stroke-linecap:round;stroke-linejoin:round;stroke-dasharray:none"
       d="m -429.7268,184.49783 c -0.625,-0.44 -1.249,-0.88 -1.874,-1.309 -0.624,-0.429 -1.249,-0.847 -1.873,-1.243 -0.625,-0.397 -1.249,-0.772 -1.874,-1.116 -0.624,-0.344 -1.249,-0.657 -1.873,-0.931 -0.625,-0.274 -1.249,-0.51 -1.874,-0.701 -0.624,-0.191 -1.249,-0.337 -1.873,-0.435 -0.625,-0.098 -1.249,-0.147 -1.874,-0.147 -0.624,0 -1.249,0.05 -1.873,0.147 -0.625,0.098 -1.249,0.245 -1.874,0.435 -0.624,0.191 -1.249,0.427 -1.873,0.701 -0.625,0.274 -1.249,0.588 -1.874,0.931 -0.624,0.344 -1.249,0.719 -1.873,1.116 -0.625,0.396 -1.249,0.814 -1.874,1.243 -0.624,0.429 -1.249,0.869 -1.873,1.309 -0.625,0.44 -1.249,0.88 -1.874,1.309 -0.624,0.428 -1.249,0.846 -1.873,1.243 -0.625,0.396 -1.249,0.771 -1.874,1.115 -0.624,0.344 -1.249,0.657 -1.873,0.931 -0.625,0.275 -1.249,0.51 -1.874,0.701 -0.624,0.191 -1.249,0.337 -1.873,0.435 -0.625,0.098 -1.249,0.147 -1.874,0.147 -0.624,0.001 -1.249,-0.049 -1.873,-0.147 -0.625,-0.098 -1.249,-0.244 -1.874,-0.435 -0.624,-0.191 -1.249,-0.426 -1.873,-0.701 -0.625,-0.274 -1.249,-0.587 -1.874,-0.931 -0.624,-0.344 -1.249,-0.719 -1.873,-1.115 -0.625,-0.397 -1.249,-0.815 -1.874,-1.243 -0.624,-0.429 -1.249,-0.869 -1.873,-1.309 -0.625,-0.44 -1.249,-0.88 -1.874,-1.309 -0.624,-0.429 -1.249,-0.847 -1.873,-1.243 -0.625,-0.397 -1.25,-0.772 -1.874,-1.116 -0.625,-0.344 -1.249,-0.657 -1.874,-0.931 -0.624,-0.274 -1.249,-0.51 -1.873,-0.701 -0.625,-0.191 -1.249,-0.337 -1.874,-0.435 -0.624,-0.098 -1.249,-0.147 -1.873,-0.147 -0.625,0 -1.249,0.05 -1.874,0.147 -0.624,0.098 -1.249,0.245 -1.873,0.435 -0.625,0.191 -1.249,0.427 -1.874,0.701 -0.624,0.274 -1.249,0.588 -1.873,0.931 -0.625,0.344 -1.249,0.719 -1.874,1.116 -0.624,0.396 -1.249,0.814 -1.873,1.243 -0.625,0.429 -1.249,0.869 -1.874,1.309 -0.624,0.44 -1.249,0.88 -1.873,1.309 -0.625,0.428 -1.249,0.846 -1.874,1.243 -0.624,0.396 -1.249,0.771 -1.873,1.115 -0.625,0.344 -1.249,0.657 -1.874,0.931 -0.624,0.275 -1.249,0.51 -1.873,0.701 -0.625,0.191 -1.249,0.337 -1.874,0.435 -0.624,0.098 -1.249,0.147 -1.873,0.147"
       title="sin(1.75*x)"
       id="path17391" />
    <path
       style="fill:none;fill-opacity:1;stroke:#55d400;stroke-width:2.64583;stroke-linecap:round;stroke-linejoin:round;stroke-dasharray:none"
       d="m -429.7268,153.39683 c -0.625,-0.314 -1.249,-0.628 -1.874,-0.938 -0.624,-0.311 -1.249,-0.617 -1.873,-0.915 -0.625,-0.298 -1.249,-0.589 -1.874,-0.867 -0.624,-0.279 -1.249,-0.546 -1.873,-0.798 -0.625,-0.252 -1.249,-0.488 -1.874,-0.707 -0.624,-0.219 -1.249,-0.419 -1.873,-0.599 -0.625,-0.18 -1.249,-0.339 -1.874,-0.475 -0.624,-0.136 -1.249,-0.25 -1.873,-0.339 -0.625,-0.09 -1.249,-0.155 -1.874,-0.195 -0.624,-0.04 -1.249,-0.056 -1.873,-0.045 -0.625,0.01 -1.249,0.045 -1.874,0.105 -0.624,0.06 -1.249,0.145 -1.873,0.253 -0.625,0.109 -1.249,0.241 -1.874,0.395 -0.624,0.155 -1.249,0.331 -1.873,0.527 -0.625,0.196 -1.249,0.411 -1.874,0.644 -0.624,0.233 -1.249,0.482 -1.873,0.746 -0.625,0.263 -1.249,0.54 -1.874,0.827 -0.624,0.288 -1.249,0.585 -1.873,0.889 -0.625,0.304 -1.249,0.615 -1.874,0.928 -0.624,0.312 -1.249,0.628 -1.873,0.941 -0.625,0.314 -1.249,0.626 -1.874,0.932 -0.624,0.307 -1.249,0.607 -1.873,0.899 -0.625,0.291 -1.249,0.573 -1.874,0.841 -0.624,0.269 -1.249,0.525 -1.873,0.764 -0.625,0.239 -1.249,0.462 -1.874,0.666 -0.624,0.204 -1.249,0.388 -1.873,0.551 -0.625,0.163 -1.249,0.304 -1.874,0.422 -0.624,0.118 -1.249,0.213 -1.873,0.283 -0.625,0.07 -1.249,0.115 -1.874,0.135 -0.624,0.02 -1.249,0.015 -1.873,-0.015 -0.625,-0.03 -1.25,-0.086 -1.874,-0.165 -0.625,-0.08 -1.249,-0.184 -1.874,-0.311 -0.624,-0.128 -1.249,-0.278 -1.873,-0.449 -0.625,-0.172 -1.249,-0.364 -1.874,-0.576 -0.624,-0.211 -1.249,-0.441 -1.873,-0.686 -0.625,-0.246 -1.249,-0.508 -1.874,-0.781 -0.624,-0.274 -1.249,-0.56 -1.873,-0.855 -0.625,-0.295 -1.249,-0.599 -1.874,-0.907 -0.624,-0.309 -1.249,-0.622 -1.873,-0.936 -0.625,-0.314 -1.249,-0.629 -1.874,-0.941 -0.624,-0.312 -1.249,-0.62 -1.873,-0.921 -0.625,-0.301 -1.249,-0.596 -1.874,-0.879 -0.624,-0.283 -1.249,-0.555 -1.873,-0.813 -0.625,-0.258 -1.249,-0.501 -1.874,-0.727 -0.624,-0.225 -1.249,-0.433 -1.873,-0.621 -0.625,-0.188 -1.249,-0.356 -1.874,-0.501 -0.624,-0.146 -1.249,-0.269 -1.873,-0.368 -0.625,-0.099 -1.249,-0.174 -1.874,-0.224 -0.624,-0.05 -1.249,-0.075 -1.873,-0.075"
       title="sin(1.25*x)"
       id="path17567" />
    <path
       style="fill:none;fill-opacity:1;stroke:#ff6600;stroke-width:2.64583;stroke-linecap:round;stroke-linejoin:round;stroke-dasharray:none"
       d="m -429.7268,122.29683 c -0.625,-0.189 -1.249,-0.377 -1.874,-0.565 -0.624,-0.188 -1.249,-0.374 -1.873,-0.559 -0.625,-0.186 -1.249,-0.369 -1.874,-0.55 -0.624,-0.18 -1.249,-0.359 -1.873,-0.533 -0.625,-0.175 -1.249,-0.346 -1.874,-0.514 -0.624,-0.167 -1.249,-0.33 -1.873,-0.488 -0.625,-0.158 -1.249,-0.311 -1.874,-0.458 -0.624,-0.148 -1.249,-0.289 -1.873,-0.425 -0.625,-0.135 -1.249,-0.265 -1.874,-0.387 -0.624,-0.122 -1.249,-0.237 -1.873,-0.345 -0.625,-0.108 -1.249,-0.208 -1.874,-0.301 -0.624,-0.093 -1.249,-0.177 -1.873,-0.253 -0.625,-0.077 -1.249,-0.145 -1.874,-0.204 -0.624,-0.06 -1.249,-0.11 -1.873,-0.152 -0.625,-0.042 -1.249,-0.075 -1.874,-0.1 -0.624,-0.024 -1.249,-0.039 -1.873,-0.045 -0.625,-0.006 -1.249,-0.003 -1.874,0.009 -0.624,0.012 -1.249,0.033 -1.873,0.064 -0.625,0.03 -1.249,0.069 -1.874,0.116 -0.624,0.048 -1.249,0.105 -1.873,0.17 -0.625,0.065 -1.249,0.139 -1.874,0.221 -0.624,0.081 -1.249,0.171 -1.873,0.269 -0.625,0.098 -1.249,0.203 -1.874,0.316 -0.624,0.113 -1.249,0.233 -1.873,0.36 -0.625,0.127 -1.249,0.26 -1.874,0.4 -0.624,0.139 -1.249,0.285 -1.873,0.436 -0.625,0.151 -1.249,0.308 -1.874,0.469 -0.624,0.161 -1.249,0.327 -1.873,0.497 -0.625,0.17 -1.249,0.344 -1.874,0.521 -0.624,0.176 -1.249,0.357 -1.873,0.539 -0.625,0.182 -1.25,0.367 -1.874,0.553 -0.625,0.186 -1.249,0.374 -1.874,0.562 -0.624,0.188 -1.249,0.377 -1.873,0.565 -0.625,0.189 -1.249,0.377 -1.874,0.564 -0.624,0.187 -1.249,0.373 -1.873,0.557 -0.625,0.184 -1.249,0.365 -1.874,0.544 -0.624,0.179 -1.249,0.355 -1.873,0.528 -0.625,0.172 -1.249,0.341 -1.874,0.505 -0.624,0.164 -1.249,0.324 -1.873,0.479 -0.625,0.155 -1.249,0.304 -1.874,0.448 -0.624,0.143 -1.249,0.281 -1.873,0.412 -0.625,0.131 -1.249,0.256 -1.874,0.373 -0.624,0.118 -1.249,0.228 -1.873,0.331 -0.625,0.103 -1.249,0.198 -1.874,0.286 -0.624,0.087 -1.249,0.166 -1.873,0.237 -0.625,0.071 -1.249,0.133 -1.874,0.187 -0.624,0.053 -1.249,0.098 -1.873,0.134 -0.625,0.036 -1.249,0.063 -1.874,0.082 -0.624,0.018 -1.249,0.027 -1.873,0.027"
       title="sin(0.75*x)"
       id="path17743" />
    <path
       style="fill:none;fill-opacity:1;stroke:#d40000;stroke-width:2.64583;stroke-linecap:round;stroke-linejoin:round;stroke-dasharray:none"
       d="m -521.5288,106.74683 c 0.625,-0.126 1.249,-0.252 1.874,-0.377 0.624,-0.126 1.249,-0.251 1.873,-0.375 0.625,-0.125 1.249,-0.249 1.874,-0.373 0.624,-0.123 1.249,-0.246 1.873,-0.367 0.625,-0.122 1.249,-0.242 1.874,-0.362 0.624,-0.119 1.249,-0.237 1.873,-0.354 0.625,-0.116 1.249,-0.231 1.874,-0.344 0.624,-0.114 1.249,-0.225 1.873,-0.335 0.625,-0.109 1.249,-0.217 1.874,-0.322 0.624,-0.105 1.249,-0.209 1.873,-0.309 0.625,-0.101 1.249,-0.199 1.874,-0.295 0.624,-0.096 1.249,-0.189 1.873,-0.279 0.625,-0.09 1.249,-0.178 1.874,-0.262 0.624,-0.085 1.249,-0.166 1.873,-0.245 0.625,-0.078 1.249,-0.153 1.874,-0.225 0.624,-0.072 1.249,-0.141 1.873,-0.206 0.625,-0.065 1.249,-0.127 1.874,-0.185 0.624,-0.058 1.249,-0.113 1.873,-0.164 0.625,-0.051 1.249,-0.098 1.874,-0.141 0.624,-0.044 1.249,-0.083 1.873,-0.119 0.625,-0.036 1.249,-0.068 1.874,-0.096 0.624,-0.028 1.249,-0.052 1.873,-0.072 0.625,-0.02 1.249,-0.036 1.874,-0.048 0.624,-0.012 1.249,-0.02 1.873,-0.024 0.625,-0.004 1.249,-0.004 1.874,0 0.624,0.004 1.249,0.012 1.873,0.024 0.625,0.012 1.249,0.028 1.874,0.048 0.624,0.02 1.249,0.044 1.873,0.072 0.625,0.028 1.249,0.06 1.874,0.096 0.624,0.036 1.249,0.075 1.873,0.119 0.625,0.043 1.25,0.09 1.874,0.141 0.625,0.051 1.249,0.106 1.874,0.164 0.624,0.058 1.249,0.12 1.873,0.185 0.625,0.065 1.249,0.134 1.874,0.206 0.624,0.072 1.249,0.147 1.873,0.225 0.625,0.079 1.249,0.16 1.874,0.245 0.624,0.084 1.249,0.172 1.873,0.262 0.625,0.09 1.249,0.183 1.874,0.279 0.624,0.096 1.249,0.194 1.873,0.295 0.625,0.1 1.249,0.204 1.874,0.309 0.624,0.105 1.249,0.213 1.873,0.322 0.625,0.11 1.249,0.221 1.874,0.335 0.624,0.113 1.249,0.228 1.873,0.344 0.625,0.117 1.249,0.235 1.874,0.354 0.624,0.12 1.249,0.24 1.873,0.362 0.625,0.121 1.249,0.244 1.874,0.367 0.624,0.124 1.249,0.248 1.873,0.373 0.625,0.124 1.249,0.249 1.874,0.375 0.624,0.125 1.249,0.251 1.873,0.377"
       title="sin(0.5*x)"
       id="path17926" />
    <path
       style="fill:none;fill-opacity:1;stroke:#ffd42a;stroke-width:2.64583;stroke-linecap:round;stroke-linejoin:round;stroke-dasharray:none"
       d="m -429.7268,137.84683 c -0.625,-0.251 -1.249,-0.503 -1.874,-0.752 -0.624,-0.249 -1.249,-0.497 -1.873,-0.74 -0.625,-0.243 -1.249,-0.482 -1.874,-0.715 -0.624,-0.233 -1.249,-0.46 -1.873,-0.679 -0.625,-0.219 -1.249,-0.43 -1.874,-0.632 -0.624,-0.201 -1.249,-0.393 -1.873,-0.574 -0.625,-0.18 -1.249,-0.35 -1.874,-0.506 -0.624,-0.157 -1.249,-0.301 -1.873,-0.432 -0.625,-0.13 -1.249,-0.246 -1.874,-0.348 -0.624,-0.102 -1.249,-0.189 -1.873,-0.261 -0.625,-0.071 -1.249,-0.127 -1.874,-0.167 -0.624,-0.04 -1.249,-0.065 -1.873,-0.073 -0.625,-0.008 -1.249,0 -1.874,0.024 -0.624,0.025 -1.249,0.065 -1.873,0.121 -0.625,0.056 -1.249,0.127 -1.874,0.214 -0.624,0.087 -1.249,0.189 -1.873,0.305 -0.625,0.117 -1.249,0.247 -1.874,0.391 -0.624,0.144 -1.249,0.301 -1.873,0.47 -0.625,0.169 -1.249,0.35 -1.874,0.541 -0.624,0.192 -1.249,0.394 -1.873,0.604 -0.625,0.211 -1.249,0.431 -1.874,0.657 -0.624,0.227 -1.249,0.46 -1.873,0.699 -0.625,0.238 -1.249,0.482 -1.874,0.729 -0.624,0.247 -1.249,0.496 -1.873,0.747 -0.625,0.251 -1.249,0.503 -1.874,0.754 -0.624,0.251 -1.249,0.501 -1.873,0.747 -0.625,0.247 -1.249,0.491 -1.874,0.73 -0.624,0.238 -1.249,0.472 -1.873,0.698 -0.625,0.227 -1.249,0.446 -1.874,0.657 -0.624,0.211 -1.249,0.412 -1.873,0.604 -0.625,0.191 -1.25,0.372 -1.874,0.541 -0.625,0.169 -1.249,0.326 -1.874,0.47 -0.624,0.144 -1.249,0.275 -1.873,0.391 -0.625,0.116 -1.249,0.218 -1.874,0.305 -0.624,0.087 -1.249,0.158 -1.873,0.214 -0.625,0.056 -1.249,0.097 -1.874,0.121 -0.624,0.024 -1.249,0.032 -1.873,0.024 -0.625,-0.008 -1.249,-0.032 -1.874,-0.073 -0.624,-0.04 -1.249,-0.096 -1.873,-0.167 -0.625,-0.072 -1.249,-0.159 -1.874,-0.261 -0.624,-0.101 -1.249,-0.218 -1.873,-0.348 -0.625,-0.13 -1.249,-0.275 -1.874,-0.431 -0.624,-0.157 -1.249,-0.326 -1.873,-0.507 -0.625,-0.181 -1.249,-0.372 -1.874,-0.574 -0.624,-0.201 -1.249,-0.413 -1.873,-0.632 -0.625,-0.219 -1.249,-0.446 -1.874,-0.679 -0.624,-0.233 -1.249,-0.472 -1.873,-0.715 -0.625,-0.243 -1.249,-0.49 -1.874,-0.74 -0.624,-0.249 -1.249,-0.5 -1.873,-0.752"
       title="sin(1*x)"
       id="path17932" />
    <path
       style="fill:none;fill-opacity:1;stroke:#660080;stroke-width:2.64583;stroke-linecap:round;stroke-linejoin:round;stroke-dasharray:none"
       d="m -429.7268,200.04783 c -0.625,-0.503 -1.249,-1.006 -1.874,-1.492 -0.624,-0.486 -1.249,-0.956 -1.873,-1.394 -0.625,-0.439 -1.249,-0.845 -1.874,-1.206 -0.624,-0.361 -1.249,-0.677 -1.873,-0.938 -0.625,-0.261 -1.249,-0.466 -1.874,-0.609 -0.624,-0.143 -1.249,-0.224 -1.873,-0.24 -0.625,-0.016 -1.249,0.033 -1.874,0.145 -0.624,0.111 -1.249,0.287 -1.873,0.519 -0.625,0.233 -1.249,0.523 -1.874,0.861 -0.624,0.338 -1.249,0.724 -1.873,1.145 -0.625,0.422 -1.249,0.878 -1.874,1.356 -0.624,0.477 -1.249,0.974 -1.873,1.476 -0.625,0.502 -1.249,1.008 -1.874,1.501 -0.624,0.494 -1.249,0.975 -1.873,1.428 -0.625,0.453 -1.249,0.878 -1.874,1.261 -0.624,0.383 -1.249,0.723 -1.873,1.011 -0.625,0.288 -1.249,0.522 -1.874,0.696 -0.624,0.173 -1.249,0.286 -1.873,0.335 -0.625,0.048 -1.249,0.031 -1.874,-0.049 -0.624,-0.08 -1.249,-0.224 -1.873,-0.428 -0.625,-0.203 -1.249,-0.466 -1.874,-0.78 -0.624,-0.313 -1.249,-0.677 -1.873,-1.08 -0.625,-0.403 -1.249,-0.845 -1.874,-1.311 -0.624,-0.466 -1.249,-0.956 -1.873,-1.455 -0.625,-0.499 -1.249,-1.006 -1.874,-1.504 -0.624,-0.499 -1.249,-0.989 -1.873,-1.455 -0.625,-0.466 -1.249,-0.908 -1.874,-1.311 -0.624,-0.403 -1.249,-0.767 -1.873,-1.081 -0.625,-0.313 -1.249,-0.576 -1.874,-0.779 -0.624,-0.204 -1.249,-0.348 -1.873,-0.428 -0.625,-0.081 -1.25,-0.097 -1.874,-0.049 -0.625,0.049 -1.249,0.161 -1.874,0.335 -0.624,0.174 -1.249,0.408 -1.873,0.696 -0.625,0.287 -1.249,0.628 -1.874,1.011 -0.624,0.383 -1.249,0.808 -1.873,1.261 -0.625,0.453 -1.249,0.934 -1.874,1.428 -0.624,0.493 -1.249,0.999 -1.873,1.501 -0.625,0.502 -1.249,0.999 -1.874,1.476 -0.624,0.478 -1.249,0.934 -1.873,1.356 -0.625,0.421 -1.249,0.807 -1.874,1.145 -0.624,0.338 -1.249,0.628 -1.873,0.861 -0.625,0.232 -1.249,0.407 -1.874,0.519 -0.624,0.112 -1.249,0.161 -1.873,0.145 -0.625,-0.016 -1.249,-0.097 -1.874,-0.24 -0.624,-0.143 -1.249,-0.349 -1.873,-0.609 -0.625,-0.261 -1.249,-0.577 -1.874,-0.938 -0.624,-0.361 -1.249,-0.768 -1.873,-1.206 -0.625,-0.438 -1.249,-0.908 -1.874,-1.394 -0.624,-0.487 -1.249,-0.989 -1.873,-1.492"
       title="sin(2*x)"
       id="path17940" />
    <path
       style="fill:none;fill-opacity:1;stroke:#00aad4;stroke-width:2.64583;stroke-linecap:round;stroke-linejoin:round;stroke-dasharray:none"
       d="m -521.5288,168.94783 c 0.625,-0.378 1.249,-0.755 1.874,-1.125 0.624,-0.37 1.249,-0.733 1.873,-1.083 0.625,-0.349 1.249,-0.685 1.874,-1.001 0.624,-0.316 1.249,-0.612 1.873,-0.883 0.625,-0.271 1.249,-0.517 1.874,-0.733 0.624,-0.215 1.249,-0.401 1.873,-0.554 0.625,-0.153 1.249,-0.272 1.874,-0.356 0.624,-0.084 1.249,-0.132 1.873,-0.144 0.625,-0.012 1.249,0.012 1.874,0.072 0.624,0.06 1.249,0.156 1.873,0.287 0.625,0.13 1.249,0.294 1.874,0.49 0.624,0.195 1.249,0.422 1.873,0.675 0.625,0.254 1.249,0.534 1.874,0.837 0.624,0.302 1.249,0.626 1.873,0.965 0.625,0.34 1.249,0.696 1.874,1.061 0.624,0.364 1.249,0.738 1.873,1.115 0.625,0.376 1.249,0.755 1.874,1.129 0.624,0.374 1.249,0.743 1.873,1.101 0.625,0.358 1.249,0.704 1.874,1.033 0.624,0.328 1.249,0.639 1.873,0.926 0.625,0.287 1.249,0.551 1.874,0.786 0.624,0.235 1.249,0.442 1.873,0.616 0.625,0.175 1.249,0.317 1.874,0.424 0.624,0.108 1.249,0.18 1.873,0.216 0.625,0.036 1.249,0.036 1.874,0 0.624,-0.036 1.249,-0.109 1.873,-0.216 0.625,-0.107 1.249,-0.249 1.874,-0.424 0.624,-0.174 1.249,-0.381 1.873,-0.616 0.625,-0.235 1.249,-0.499 1.874,-0.786 0.624,-0.287 1.249,-0.598 1.873,-0.926 0.625,-0.329 1.25,-0.675 1.874,-1.033 0.625,-0.358 1.249,-0.727 1.874,-1.101 0.624,-0.374 1.249,-0.753 1.873,-1.129 0.625,-0.377 1.249,-0.751 1.874,-1.115 0.624,-0.365 1.249,-0.721 1.873,-1.061 0.625,-0.339 1.249,-0.663 1.874,-0.965 0.624,-0.303 1.249,-0.583 1.873,-0.837 0.625,-0.253 1.249,-0.48 1.874,-0.675 0.624,-0.196 1.249,-0.36 1.873,-0.49 0.625,-0.131 1.249,-0.227 1.874,-0.287 0.624,-0.06 1.249,-0.084 1.873,-0.072 0.625,0.012 1.249,0.06 1.874,0.144 0.624,0.084 1.249,0.204 1.873,0.356 0.625,0.153 1.249,0.339 1.874,0.554 0.624,0.216 1.249,0.462 1.873,0.733 0.625,0.271 1.249,0.567 1.874,0.883 0.624,0.316 1.249,0.652 1.873,1.001 0.625,0.35 1.249,0.713 1.874,1.083 0.624,0.37 1.249,0.747 1.873,1.125"
       title="sin(1.5*x)"
       id="path17944" />
    <rect
       style="opacity:1;fill:url(#linearGradient18972);fill-opacity:1;stroke:none;stroke-width:0.205641;stroke-linecap:round;stroke-linejoin:round;stroke-dasharray:none"
       id="rect18941"
       width="15.106976"
       height="126.69913"
       x="-522.19025"
       y="88.799614" />
    <rect
       style="opacity:1;fill:url(#linearGradient18976);fill-opacity:1;stroke:none;stroke-width:0.180831;stroke-linecap:round;stroke-linejoin:round;stroke-dasharray:none"
       id="rect18974"
       width="11.681599"
       height="126.69913"
       x="226.31473"
       y="88.799614"
       transform="scale(-1,1)" />
    <g
       transform="matrix(2.11667,0,0,2.11667,-351.70874,227.13874)"
       ns1:version="1.8.2"
       ns1:texconverter="pdflatex"
       ns1:pdfconverter="inkscape"
       ns1:text="$d$"
       ns1:preamble="/home/benjaminspreng/wd/papers/thermal_torque/figures/default_packages.tex"
       ns1:scale="6.0"
       ns1:alignment="middle center"
       ns1:stroke-to-path="0"
       ns1:inkscapeversion="1.2.1"
       ns1:jacobian_sqrt="2.11667"
       id="g20107">
      <defs
         id="id-5fea3201-5d19-4b73-a538-7253fe4498b1">
        <g
           id="id-3dbe93ff-667e-417a-86b2-9368cffa1700">
          <symbol
             overflow="visible"
             id="id-d7b834bb-6684-458d-9329-0c4000aa8c38">
            <path
               style="stroke:none"
               d=""
               id="id-56109ad7-04b5-4892-9923-1fdcef758daf" />
          </symbol>
          <symbol
             overflow="visible"
             id="id-958b5fc7-8919-4cc9-8405-2cf1c60c0cb6">
            <path
               style="stroke:none"
               d="m 5.140625,-6.8125 c 0,0 0,-0.109375 -0.125,-0.109375 -0.15625,0 -1.09375,0.09375 -1.265625,0.109375 -0.078125,0.015625 -0.140625,0.0625 -0.140625,0.1875 0,0.125 0.09375,0.125 0.234375,0.125 0.484375,0 0.5,0.0625 0.5,0.171875 L 4.3125,-6.125 3.71875,-3.765625 C 3.53125,-4.140625 3.25,-4.40625 2.796875,-4.40625 c -1.15625,0 -2.390625,1.46875 -2.390625,2.921875 0,0.9375 0.546875,1.59375 1.3125,1.59375 0.203125,0 0.703125,-0.046875 1.296875,-0.75 0.078125,0.421875 0.4375,0.75 0.90625,0.75 0.359375,0 0.578125,-0.234375 0.75,-0.546875 0.15625,-0.359375 0.296875,-0.96875 0.296875,-0.984375 0,-0.109375 -0.09375,-0.109375 -0.125,-0.109375 -0.09375,0 -0.109375,0.046875 -0.140625,0.1875 -0.171875,0.640625 -0.34375,1.234375 -0.75,1.234375 -0.28125,0 -0.296875,-0.265625 -0.296875,-0.453125 0,-0.25 0.015625,-0.3125 0.046875,-0.484375 z m -2.0625,5.625 C 3.015625,-1 3.015625,-0.984375 2.875,-0.8125 2.4375,-0.265625 2.03125,-0.109375 1.75,-0.109375 c -0.5,0 -0.640625,-0.546875 -0.640625,-0.9375 0,-0.5 0.3125,-1.71875 0.546875,-2.1875 0.3125,-0.578125 0.75,-0.953125 1.15625,-0.953125 0.640625,0 0.78125,0.8125 0.78125,0.875 0,0.0625 -0.015625,0.125 -0.03125,0.171875 z m 0,0"
               id="id-d0b07f1b-1b10-4ebe-a81a-6dd635a301cb" />
          </symbol>
        </g>
      </defs>
      <g
         id="id-fcde2a8b-ce5b-4b75-a0f8-e01808f7a982"
         transform="translate(-149.118,-127.843)">
        <g
           style="fill:#000000;fill-opacity:1"
           id="id-2b4d8c1a-f92e-4d99-80fe-daa1cfb1effd">
          <g
             transform="translate(148.712,134.765)"
             id="g20367">
            <path
               style="stroke:none"
               d="m 5.140625,-6.8125 c 0,0 0,-0.109375 -0.125,-0.109375 -0.15625,0 -1.09375,0.09375 -1.265625,0.109375 -0.078125,0.015625 -0.140625,0.0625 -0.140625,0.1875 0,0.125 0.09375,0.125 0.234375,0.125 0.484375,0 0.5,0.0625 0.5,0.171875 L 4.3125,-6.125 3.71875,-3.765625 C 3.53125,-4.140625 3.25,-4.40625 2.796875,-4.40625 c -1.15625,0 -2.390625,1.46875 -2.390625,2.921875 0,0.9375 0.546875,1.59375 1.3125,1.59375 0.203125,0 0.703125,-0.046875 1.296875,-0.75 0.078125,0.421875 0.4375,0.75 0.90625,0.75 0.359375,0 0.578125,-0.234375 0.75,-0.546875 0.15625,-0.359375 0.296875,-0.96875 0.296875,-0.984375 0,-0.109375 -0.09375,-0.109375 -0.125,-0.109375 -0.09375,0 -0.109375,0.046875 -0.140625,0.1875 -0.171875,0.640625 -0.34375,1.234375 -0.75,1.234375 -0.28125,0 -0.296875,-0.265625 -0.296875,-0.453125 0,-0.25 0.015625,-0.3125 0.046875,-0.484375 z m -2.0625,5.625 C 3.015625,-1 3.015625,-0.984375 2.875,-0.8125 2.4375,-0.265625 2.03125,-0.109375 1.75,-0.109375 c -0.5,0 -0.640625,-0.546875 -0.640625,-0.9375 0,-0.5 0.3125,-1.71875 0.546875,-2.1875 0.3125,-0.578125 0.75,-0.953125 1.15625,-0.953125 0.640625,0 0.78125,0.8125 0.78125,0.875 0,0.0625 -0.015625,0.125 -0.03125,0.171875 z m 0,0"
               id="id-25d17afb-e870-42e4-a16c-331ec0615ab8" />
          </g>
        </g>
      </g>
    </g>
    <path
       style="fill:none;stroke:#000000;stroke-width:1.05833;stroke-linecap:butt;stroke-linejoin:miter;stroke-dasharray:none;stroke-opacity:1;marker-end:url(#Arrow2)"
       d="m -354.32494,234.58042 h -31.66438"
       id="path20434" />
    <path
       style="fill:none;stroke:#000000;stroke-width:1.05833;stroke-linecap:butt;stroke-linejoin:miter;stroke-dasharray:none;stroke-opacity:1;marker-end:url(#Arrow2)"
       d="m -339.86162,234.58042 h 31.66438"
       id="path20699" />
    <g
       transform="matrix(2.11667,0,0,2.11667,-321.11117,60.927879)"
       ns1:version="1.8.2"
       ns1:texconverter="pdflatex"
       ns1:pdfconverter="inkscape"
       ns1:text="area $A$"
       ns1:preamble="/home/benjaminspreng/wd/papers/thermal_torque/figures/default_packages.tex"
       ns1:scale="6.0"
       ns1:alignment="middle center"
       ns1:stroke-to-path="0"
       ns1:inkscapeversion="1.2.1"
       ns1:jacobian_sqrt="2.11667"
       id="g20929">
      <defs
         id="id-433b4267-d0ce-4b2a-82da-ad677a93adbc">
        <g
           id="id-6c4bc24f-bfd6-48e5-8f38-400128acac77">
          <symbol
             overflow="visible"
             id="id-4ffe6bb0-8073-4c79-8705-cfccbb695521">
            <path
               style="stroke:none;stroke-width:0"
               d=""
               id="id-3d95b77d-306d-4787-b723-02430b341f15" />
          </symbol>
          <symbol
             overflow="visible"
             id="id-193756d8-abed-4ff0-9b63-7d3cd8801362">
            <path
               style="stroke:none;stroke-width:0"
               d="m 3.3125,-0.75 c 0.046875,0.390625 0.3125,0.8125 0.78125,0.8125 0.21875,0 0.828125,-0.140625 0.828125,-0.953125 v -0.5625 h -0.25 v 0.5625 c 0,0.578125 -0.25,0.640625 -0.359375,0.640625 -0.328125,0 -0.375,-0.453125 -0.375,-0.5 v -1.984375 c 0,-0.421875 0,-0.8125 -0.359375,-1.1875 C 3.1875,-4.3125 2.6875,-4.46875 2.21875,-4.46875 c -0.828125,0 -1.515625,0.46875 -1.515625,1.125 0,0.296875 0.203125,0.46875 0.46875,0.46875 0.28125,0 0.453125,-0.203125 0.453125,-0.453125 0,-0.125 -0.046875,-0.453125 -0.515625,-0.453125 C 1.390625,-4.140625 1.875,-4.25 2.1875,-4.25 c 0.5,0 1.0625,0.390625 1.0625,1.28125 v 0.359375 c -0.515625,0.03125 -1.203125,0.0625 -1.828125,0.359375 -0.75,0.34375 -1,0.859375 -1,1.296875 0,0.8125 0.96875,1.0625 1.59375,1.0625 0.65625,0 1.109375,-0.40625 1.296875,-0.859375 z M 3.25,-2.390625 v 1 c 0,0.9375 -0.71875,1.28125 -1.171875,1.28125 -0.484375,0 -0.890625,-0.34375 -0.890625,-0.84375 0,-0.546875 0.421875,-1.375 2.0625,-1.4375 z m 0,0"
               id="id-c20957e9-6710-44bb-b51b-a9dbf84c6729" />
          </symbol>
          <symbol
             overflow="visible"
             id="id-5cf4d950-f4f9-42f3-a980-15f7e6b018e9">
            <path
               style="stroke:none;stroke-width:0"
               d="M 1.671875,-3.3125 V -4.40625 L 0.28125,-4.296875 v 0.3125 c 0.703125,0 0.78125,0.0625 0.78125,0.5625 V -0.75 c 0,0.4375 -0.109375,0.4375 -0.78125,0.4375 V 0 c 0.390625,-0.015625 0.859375,-0.03125 1.140625,-0.03125 0.390625,0 0.859375,0 1.265625,0.03125 V -0.3125 H 2.46875 c -0.734375,0 -0.75,-0.109375 -0.75,-0.46875 V -2.3125 c 0,-0.984375 0.421875,-1.875 1.171875,-1.875 0.0625,0 0.09375,0 0.109375,0.015625 -0.03125,0 -0.234375,0.125 -0.234375,0.390625 0,0.265625 0.21875,0.421875 0.4375,0.421875 0.171875,0 0.421875,-0.125 0.421875,-0.4375 0,-0.3125 -0.3125,-0.609375 -0.734375,-0.609375 -0.734375,0 -1.09375,0.671875 -1.21875,1.09375 z m 0,0"
               id="id-9421f2c0-6d45-4286-b807-212b61ede0ed" />
          </symbol>
          <symbol
             overflow="visible"
             id="id-2dbf8c2c-0fc9-472c-ab7a-ce89d6d93f12">
            <path
               style="stroke:none;stroke-width:0"
               d="M 1.109375,-2.515625 C 1.171875,-4 2.015625,-4.25 2.359375,-4.25 c 1.015625,0 1.125,1.34375 1.125,1.734375 z m 0,0.21875 h 2.78125 c 0.21875,0 0.25,0 0.25,-0.21875 0,-0.984375 -0.546875,-1.953125 -1.78125,-1.953125 -1.15625,0 -2.078125,1.03125 -2.078125,2.28125 0,1.328125 1.046875,2.296875 2.1875,2.296875 C 3.6875,0.109375 4.140625,-1 4.140625,-1.1875 4.140625,-1.28125 4.0625,-1.3125 4,-1.3125 c -0.078125,0 -0.109375,0.0625 -0.125,0.140625 -0.34375,1.03125 -1.25,1.03125 -1.34375,1.03125 -0.5,0 -0.890625,-0.296875 -1.125,-0.671875 -0.296875,-0.46875 -0.296875,-1.125 -0.296875,-1.484375 z m 0,0"
               id="id-b47b6233-d762-42f7-9ead-4d2cc3f20a59" />
          </symbol>
          <symbol
             overflow="visible"
             id="id-8fb8f2bd-d58c-436c-9ec1-6c1f2272271f">
            <path
               style="stroke:none;stroke-width:0"
               d=""
               id="id-fe5bed08-1757-4baa-8579-f43250212f51" />
          </symbol>
          <symbol
             overflow="visible"
             id="id-c0cdccd3-fd62-46ce-bc9e-4383653da356">
            <path
               style="stroke:none;stroke-width:0"
               d="M 1.78125,-1.140625 C 1.390625,-0.484375 1,-0.34375 0.5625,-0.3125 0.4375,-0.296875 0.34375,-0.296875 0.34375,-0.109375 0.34375,-0.046875 0.40625,0 0.484375,0 0.75,0 1.0625,-0.03125 1.328125,-0.03125 c 0.34375,0 0.6875,0.03125 1,0.03125 0.0625,0 0.1875,0 0.1875,-0.1875 0,-0.109375 -0.078125,-0.125 -0.15625,-0.125 -0.21875,-0.015625 -0.46875,-0.09375 -0.46875,-0.34375 0,-0.125 0.0625,-0.234375 0.140625,-0.375 l 0.765625,-1.265625 h 2.5 c 0.015625,0.203125 0.15625,1.5625 0.15625,1.65625 0,0.296875 -0.515625,0.328125 -0.71875,0.328125 C 4.59375,-0.3125 4.5,-0.3125 4.5,-0.109375 4.5,0 4.609375,0 4.640625,0 5.046875,0 5.46875,-0.03125 5.875,-0.03125 6.125,-0.03125 6.765625,0 7.015625,0 7.0625,0 7.1875,0 7.1875,-0.203125 7.1875,-0.3125 7.09375,-0.3125 6.953125,-0.3125 6.34375,-0.3125 6.34375,-0.375 6.3125,-0.671875 l -0.609375,-6.21875 c -0.015625,-0.203125 -0.015625,-0.25 -0.1875,-0.25 -0.15625,0 -0.203125,0.078125 -0.265625,0.171875 z M 2.984375,-2.609375 4.9375,-5.90625 5.265625,-2.609375 Z m 0,0"
               id="id-70c3e4d7-8b73-495a-bbe7-bdc5c646172a" />
          </symbol>
        </g>
      </defs>
      <g
         id="id-f7670108-8cb3-482c-a789-9983f622cef5"
         transform="translate(-149.134,-127.624)">
        <g
           style="fill:#000000;fill-opacity:1"
           id="id-0d6b6d2d-ef43-429a-9592-6405f10f10ef">
          <g
             transform="translate(148.712,134.765)"
             id="g20912">
            <path
               style="stroke:none;stroke-width:0"
               d="m 3.3125,-0.75 c 0.046875,0.390625 0.3125,0.8125 0.78125,0.8125 0.21875,0 0.828125,-0.140625 0.828125,-0.953125 v -0.5625 h -0.25 v 0.5625 c 0,0.578125 -0.25,0.640625 -0.359375,0.640625 -0.328125,0 -0.375,-0.453125 -0.375,-0.5 v -1.984375 c 0,-0.421875 0,-0.8125 -0.359375,-1.1875 C 3.1875,-4.3125 2.6875,-4.46875 2.21875,-4.46875 c -0.828125,0 -1.515625,0.46875 -1.515625,1.125 0,0.296875 0.203125,0.46875 0.46875,0.46875 0.28125,0 0.453125,-0.203125 0.453125,-0.453125 0,-0.125 -0.046875,-0.453125 -0.515625,-0.453125 C 1.390625,-4.140625 1.875,-4.25 2.1875,-4.25 c 0.5,0 1.0625,0.390625 1.0625,1.28125 v 0.359375 c -0.515625,0.03125 -1.203125,0.0625 -1.828125,0.359375 -0.75,0.34375 -1,0.859375 -1,1.296875 0,0.8125 0.96875,1.0625 1.59375,1.0625 0.65625,0 1.109375,-0.40625 1.296875,-0.859375 z M 3.25,-2.390625 v 1 c 0,0.9375 -0.71875,1.28125 -1.171875,1.28125 -0.484375,0 -0.890625,-0.34375 -0.890625,-0.84375 0,-0.546875 0.421875,-1.375 2.0625,-1.4375 z m 0,0"
               id="id-dd4107d6-3930-40fd-be8c-01b3770e9a4e" />
          </g>
          <g
             transform="translate(153.693,134.765)"
             id="g20915">
            <path
               style="stroke:none;stroke-width:0"
               d="M 1.671875,-3.3125 V -4.40625 L 0.28125,-4.296875 v 0.3125 c 0.703125,0 0.78125,0.0625 0.78125,0.5625 V -0.75 c 0,0.4375 -0.109375,0.4375 -0.78125,0.4375 V 0 c 0.390625,-0.015625 0.859375,-0.03125 1.140625,-0.03125 0.390625,0 0.859375,0 1.265625,0.03125 V -0.3125 H 2.46875 c -0.734375,0 -0.75,-0.109375 -0.75,-0.46875 V -2.3125 c 0,-0.984375 0.421875,-1.875 1.171875,-1.875 0.0625,0 0.09375,0 0.109375,0.015625 -0.03125,0 -0.234375,0.125 -0.234375,0.390625 0,0.265625 0.21875,0.421875 0.4375,0.421875 0.171875,0 0.421875,-0.125 0.421875,-0.4375 0,-0.3125 -0.3125,-0.609375 -0.734375,-0.609375 -0.734375,0 -1.09375,0.671875 -1.21875,1.09375 z m 0,0"
               id="id-115e2241-cf61-4218-a0a5-5022a7a08077" />
          </g>
          <g
             transform="translate(157.596,134.765)"
             id="g20918">
            <path
               style="stroke:none;stroke-width:0"
               d="M 1.109375,-2.515625 C 1.171875,-4 2.015625,-4.25 2.359375,-4.25 c 1.015625,0 1.125,1.34375 1.125,1.734375 z m 0,0.21875 h 2.78125 c 0.21875,0 0.25,0 0.25,-0.21875 0,-0.984375 -0.546875,-1.953125 -1.78125,-1.953125 -1.15625,0 -2.078125,1.03125 -2.078125,2.28125 0,1.328125 1.046875,2.296875 2.1875,2.296875 C 3.6875,0.109375 4.140625,-1 4.140625,-1.1875 4.140625,-1.28125 4.0625,-1.3125 4,-1.3125 c -0.078125,0 -0.109375,0.0625 -0.125,0.140625 -0.34375,1.03125 -1.25,1.03125 -1.34375,1.03125 -0.5,0 -0.890625,-0.296875 -1.125,-0.671875 -0.296875,-0.46875 -0.296875,-1.125 -0.296875,-1.484375 z m 0,0"
               id="id-0692aa03-266f-4e80-b661-7e62d1a007a1" />
          </g>
          <g
             transform="translate(162.023,134.765)"
             id="g20921">
            <path
               style="stroke:none;stroke-width:0"
               d="m 3.3125,-0.75 c 0.046875,0.390625 0.3125,0.8125 0.78125,0.8125 0.21875,0 0.828125,-0.140625 0.828125,-0.953125 v -0.5625 h -0.25 v 0.5625 c 0,0.578125 -0.25,0.640625 -0.359375,0.640625 -0.328125,0 -0.375,-0.453125 -0.375,-0.5 v -1.984375 c 0,-0.421875 0,-0.8125 -0.359375,-1.1875 C 3.1875,-4.3125 2.6875,-4.46875 2.21875,-4.46875 c -0.828125,0 -1.515625,0.46875 -1.515625,1.125 0,0.296875 0.203125,0.46875 0.46875,0.46875 0.28125,0 0.453125,-0.203125 0.453125,-0.453125 0,-0.125 -0.046875,-0.453125 -0.515625,-0.453125 C 1.390625,-4.140625 1.875,-4.25 2.1875,-4.25 c 0.5,0 1.0625,0.390625 1.0625,1.28125 v 0.359375 c -0.515625,0.03125 -1.203125,0.0625 -1.828125,0.359375 -0.75,0.34375 -1,0.859375 -1,1.296875 0,0.8125 0.96875,1.0625 1.59375,1.0625 0.65625,0 1.109375,-0.40625 1.296875,-0.859375 z M 3.25,-2.390625 v 1 c 0,0.9375 -0.71875,1.28125 -1.171875,1.28125 -0.484375,0 -0.890625,-0.34375 -0.890625,-0.84375 0,-0.546875 0.421875,-1.375 2.0625,-1.4375 z m 0,0"
               id="id-70aba7b5-b935-4ef5-9a90-6aa90d7514f4" />
          </g>
        </g>
        <g
           style="fill:#000000;fill-opacity:1"
           id="id-8b3824b8-cdc0-45c8-aea6-245a7eb3e983">
          <g
             transform="translate(170.326,134.765)"
             id="g20925">
            <path
               style="stroke:none;stroke-width:0"
               d="M 1.78125,-1.140625 C 1.390625,-0.484375 1,-0.34375 0.5625,-0.3125 0.4375,-0.296875 0.34375,-0.296875 0.34375,-0.109375 0.34375,-0.046875 0.40625,0 0.484375,0 0.75,0 1.0625,-0.03125 1.328125,-0.03125 c 0.34375,0 0.6875,0.03125 1,0.03125 0.0625,0 0.1875,0 0.1875,-0.1875 0,-0.109375 -0.078125,-0.125 -0.15625,-0.125 -0.21875,-0.015625 -0.46875,-0.09375 -0.46875,-0.34375 0,-0.125 0.0625,-0.234375 0.140625,-0.375 l 0.765625,-1.265625 h 2.5 c 0.015625,0.203125 0.15625,1.5625 0.15625,1.65625 0,0.296875 -0.515625,0.328125 -0.71875,0.328125 C 4.59375,-0.3125 4.5,-0.3125 4.5,-0.109375 4.5,0 4.609375,0 4.640625,0 5.046875,0 5.46875,-0.03125 5.875,-0.03125 6.125,-0.03125 6.765625,0 7.015625,0 7.0625,0 7.1875,0 7.1875,-0.203125 7.1875,-0.3125 7.09375,-0.3125 6.953125,-0.3125 6.34375,-0.3125 6.34375,-0.375 6.3125,-0.671875 l -0.609375,-6.21875 c -0.015625,-0.203125 -0.015625,-0.25 -0.1875,-0.25 -0.15625,0 -0.203125,0.078125 -0.265625,0.171875 z M 2.984375,-2.609375 4.9375,-5.90625 5.265625,-2.609375 Z m 0,0"
               id="id-1700f087-637b-4f44-bcb9-edd04c5a3338" />
          </g>
        </g>
      </g>
    </g>
    <path
       style="fill:none;stroke:#000000;stroke-width:0.79375;stroke-linecap:butt;stroke-linejoin:miter;stroke-dasharray:none;stroke-opacity:1"
       d="m -344.84238,86.329948 c 4.70851,0.164649 10.06463,2.106599 10.91052,-8.329291 0.56917,-5.607518 1.73044,-10.431161 9.14236,-6.979448"
       id="path21715"
       sodipodi:nodetypes="ccc" />
  </g>
</svg>
